%FSLAX43Y43*%
%MOMM*%
G71*
G01*
G75*
G04 Layer_Physical_Order=2*
%ADD10C,0.300*%
%ADD11C,4.000*%
%ADD12C,2.000*%
%ADD13C,4.100*%
%ADD14C,5.000*%
%ADD15C,2.000*%
D10*
X32600Y10100D02*
Y19400D01*
X32688Y10100D02*
Y19488D01*
X32788Y10100D02*
Y19588D01*
X32888Y10100D02*
Y19688D01*
X32988Y10100D02*
Y19788D01*
X33088Y10100D02*
Y19888D01*
X33188Y10100D02*
Y19988D01*
X33288Y10100D02*
Y20088D01*
X33388Y10100D02*
Y20188D01*
X33488Y10100D02*
Y20288D01*
X33588Y10100D02*
Y20388D01*
X33688Y10100D02*
Y20488D01*
X33788Y10100D02*
Y20588D01*
X33888Y10100D02*
Y20688D01*
X33988Y10100D02*
Y20788D01*
X34088Y10100D02*
Y20888D01*
X34188Y10100D02*
Y20988D01*
X34288Y10100D02*
Y21088D01*
X34388Y10100D02*
Y21188D01*
X34488Y10100D02*
Y21288D01*
X34588Y10100D02*
Y21388D01*
X34688Y10100D02*
Y21488D01*
X34788Y10100D02*
Y21588D01*
X34888Y10100D02*
Y21688D01*
X34988Y10100D02*
Y21788D01*
X35088Y10100D02*
Y21888D01*
X35188Y10100D02*
Y21988D01*
X35288Y10100D02*
Y22088D01*
X35388Y10100D02*
Y22188D01*
X35488Y10100D02*
Y22288D01*
X35588Y10100D02*
Y22388D01*
X35688Y10100D02*
Y22488D01*
X35788Y10100D02*
Y22588D01*
X35888Y10100D02*
Y22688D01*
X35988Y10100D02*
Y22788D01*
X36088Y10100D02*
Y22888D01*
X36188Y10100D02*
Y22988D01*
X36288Y10100D02*
Y23088D01*
X36388Y10100D02*
Y23188D01*
X36488Y10100D02*
Y23288D01*
X36588Y10100D02*
Y23388D01*
X36688Y10100D02*
Y23488D01*
X36788Y10100D02*
Y23588D01*
X36888Y10100D02*
Y23688D01*
X36988Y10100D02*
Y23788D01*
X37088Y10100D02*
Y23888D01*
X37188Y10100D02*
Y23988D01*
X37288Y10100D02*
Y24088D01*
X37388Y10100D02*
Y24188D01*
X37488Y10100D02*
Y24288D01*
X32600Y10100D02*
X54446D01*
X32600Y10108D02*
X54446D01*
X32600Y10208D02*
X54446D01*
X32600Y10308D02*
X54446D01*
X32600Y10408D02*
X54446D01*
X32600Y10508D02*
X54446D01*
X32600Y10608D02*
X54446D01*
X32600Y10708D02*
X54446D01*
X32600Y10808D02*
X54446D01*
X32600Y10908D02*
X54446D01*
X32600Y11008D02*
X54446D01*
X32600Y11108D02*
X54446D01*
X32600Y11208D02*
X54446D01*
X32600Y11308D02*
X54446D01*
X32600Y11408D02*
X54446D01*
X32600Y11508D02*
X54446D01*
X32600Y11608D02*
X54446D01*
X32600Y11708D02*
X54446D01*
X32600Y11808D02*
X54446D01*
X32600Y11908D02*
X54446D01*
X32600Y12008D02*
X54446D01*
X32600Y12108D02*
X54446D01*
X32600Y12208D02*
X54446D01*
X32600Y12308D02*
X54446D01*
X32600Y12408D02*
X54446D01*
X32600Y12508D02*
X54446D01*
X32600Y12608D02*
X54446D01*
X32600Y12708D02*
X54446D01*
X32600Y12808D02*
X54446D01*
X32600Y12908D02*
X54446D01*
X32600Y13008D02*
X54446D01*
X32600Y13108D02*
X54446D01*
X32600Y13208D02*
X54446D01*
X32600Y13308D02*
X54446D01*
X32600Y13408D02*
X54446D01*
X32600Y13508D02*
X54446D01*
X32600Y13608D02*
X54446D01*
X37588Y10100D02*
Y24388D01*
X37688Y10100D02*
Y24488D01*
X37788Y10100D02*
Y24588D01*
X32600Y13708D02*
X54446D01*
X32600Y13808D02*
X54446D01*
X32600Y13908D02*
X54446D01*
X32600Y14008D02*
X54446D01*
X32600Y14108D02*
X54446D01*
X32600Y14208D02*
X54446D01*
X32600Y14308D02*
X54446D01*
X32600Y14408D02*
X54446D01*
X32600Y14508D02*
X54446D01*
X32600Y14608D02*
X54446D01*
X32600Y14708D02*
X54446D01*
X32600Y14808D02*
X54446D01*
X32600Y14908D02*
X54446D01*
X32600Y15008D02*
X54446D01*
X32600Y15108D02*
X54446D01*
X32600Y15208D02*
X54446D01*
X32600Y15308D02*
X54446D01*
X32600Y15408D02*
X54446D01*
X32600Y15508D02*
X54446D01*
X32600Y15608D02*
X54446D01*
X32600Y15708D02*
X54446D01*
X32600Y15808D02*
X54446D01*
X32600Y15908D02*
X54446D01*
X32600Y16008D02*
X54446D01*
X32600Y16108D02*
X54446D01*
X32600Y16208D02*
X54446D01*
X32600Y16308D02*
X54446D01*
X32600Y16408D02*
X54446D01*
X32600Y16508D02*
X54446D01*
X32600Y16608D02*
X54446D01*
X32600Y16708D02*
X54446D01*
X32600Y16808D02*
X54446D01*
X32600Y16908D02*
X54446D01*
X32600Y17008D02*
X54446D01*
X32600Y17108D02*
X54446D01*
X32600Y17208D02*
X54446D01*
X32600Y17308D02*
X54446D01*
X32600Y17408D02*
X54446D01*
X32600Y17508D02*
X54446D01*
X32600Y17608D02*
X54446D01*
X32600Y17708D02*
X54446D01*
X32600Y17808D02*
X54446D01*
X32600Y17908D02*
X54446D01*
X32600Y18008D02*
X54446D01*
X32600Y18108D02*
X54446D01*
X32600Y18208D02*
X54446D01*
X32600Y18308D02*
X54446D01*
X32600Y18408D02*
X54446D01*
X32600Y18508D02*
X54446D01*
X32600Y18608D02*
X54446D01*
X32600Y18708D02*
X54446D01*
X32600Y18808D02*
X54446D01*
X32600Y18908D02*
X54446D01*
X32600Y19008D02*
X54446D01*
X32600Y19108D02*
X54446D01*
X32600Y19400D02*
X41200Y28000D01*
X32600Y19208D02*
X54446D01*
X32600Y19308D02*
X54446D01*
X32608Y19408D02*
X54446D01*
X32708Y19508D02*
X54446D01*
X32808Y19608D02*
X54446D01*
X32908Y19708D02*
X54446D01*
X33008Y19808D02*
X54446D01*
X33108Y19908D02*
X54446D01*
X33208Y20008D02*
X54446D01*
X33308Y20108D02*
X54446D01*
X33408Y20208D02*
X54446D01*
X33508Y20308D02*
X54446D01*
X33608Y20408D02*
X54446D01*
X33708Y20508D02*
X54446D01*
X33808Y20608D02*
X54446D01*
X33908Y20708D02*
X54446D01*
X34008Y20808D02*
X54446D01*
X34108Y20908D02*
X54446D01*
X34208Y21008D02*
X54446D01*
X34308Y21108D02*
X54446D01*
X34408Y21208D02*
X54446D01*
X34508Y21308D02*
X54446D01*
X34608Y21408D02*
X54446D01*
X34708Y21508D02*
X54446D01*
X34808Y21608D02*
X54446D01*
X34908Y21708D02*
X54446D01*
X35008Y21808D02*
X54446D01*
X35108Y21908D02*
X54446D01*
X35208Y22008D02*
X54446D01*
X35308Y22108D02*
X54446D01*
X35408Y22208D02*
X54446D01*
X35508Y22308D02*
X54446D01*
X35608Y22408D02*
X54446D01*
X35708Y22508D02*
X54446D01*
X35808Y22608D02*
X54446D01*
X35908Y22708D02*
X54446D01*
X36008Y22808D02*
X54446D01*
X36108Y22908D02*
X54446D01*
X36208Y23008D02*
X54446D01*
X36308Y23108D02*
X54446D01*
X36408Y23208D02*
X54446D01*
X36508Y23308D02*
X54446D01*
X36608Y23408D02*
X54446D01*
X36708Y23508D02*
X54446D01*
X36808Y23608D02*
X54446D01*
X36908Y23708D02*
X54446D01*
X37008Y23808D02*
X54446D01*
X37108Y23908D02*
X54446D01*
X37208Y24008D02*
X54446D01*
X37308Y24108D02*
X54446D01*
X37408Y24208D02*
X54446D01*
X37508Y24308D02*
X54446D01*
X37608Y24408D02*
X54446D01*
X37708Y24508D02*
X54446D01*
X37808Y24608D02*
X54446D01*
X37888Y10100D02*
Y24688D01*
X37988Y10100D02*
Y24788D01*
X38088Y10100D02*
Y24888D01*
X38188Y10100D02*
Y24988D01*
X38288Y10100D02*
Y25088D01*
X38388Y10100D02*
Y25188D01*
X38488Y10100D02*
Y25288D01*
X38588Y10100D02*
Y25388D01*
X38688Y10100D02*
Y25488D01*
X38788Y10100D02*
Y25588D01*
X38888Y10100D02*
Y25688D01*
X38988Y10100D02*
Y25788D01*
X39088Y10100D02*
Y25888D01*
X39188Y10100D02*
Y25988D01*
X39288Y10100D02*
Y26088D01*
X39388Y10100D02*
Y26188D01*
X39488Y10100D02*
Y26288D01*
X39588Y10100D02*
Y26388D01*
X39688Y10100D02*
Y26488D01*
X39788Y10100D02*
Y26588D01*
X39888Y10100D02*
Y26688D01*
X39988Y10100D02*
Y26788D01*
X40088Y10100D02*
Y26888D01*
X40188Y10100D02*
Y26988D01*
X40288Y10100D02*
Y27088D01*
X40388Y10100D02*
Y27188D01*
X40488Y10100D02*
Y27288D01*
X40588Y10100D02*
Y27388D01*
X40688Y10100D02*
Y27488D01*
X40788Y10100D02*
Y27588D01*
X40888Y10100D02*
Y27688D01*
X40988Y10100D02*
Y27788D01*
X41088Y10100D02*
Y27888D01*
X41188Y10100D02*
Y27988D01*
X41288Y10100D02*
Y28000D01*
X41388Y10100D02*
Y28000D01*
X41488Y10100D02*
Y28000D01*
X41588Y10100D02*
Y28000D01*
X41688Y10100D02*
Y28000D01*
X41788Y10100D02*
Y28000D01*
X41888Y10100D02*
Y28000D01*
X41988Y10100D02*
Y28000D01*
X42088Y10100D02*
Y28000D01*
X42188Y10100D02*
Y28000D01*
X42288Y10100D02*
Y28000D01*
X42388Y10100D02*
Y28000D01*
X42488Y10100D02*
Y28000D01*
X42588Y10100D02*
Y28000D01*
X42688Y10100D02*
Y28000D01*
X42788Y10100D02*
Y28000D01*
X42888Y10100D02*
Y28000D01*
X42988Y10100D02*
Y28000D01*
X43088Y10100D02*
Y28000D01*
X43188Y10100D02*
Y28000D01*
X43288Y10100D02*
Y28000D01*
X43388Y10100D02*
Y28000D01*
X43488Y10100D02*
Y28000D01*
X43588Y10100D02*
Y28000D01*
X43688Y10100D02*
Y28000D01*
X43788Y10100D02*
Y28000D01*
X43888Y10100D02*
Y28000D01*
X43988Y10100D02*
Y28000D01*
X44088Y10100D02*
Y28000D01*
X44188Y10100D02*
Y28000D01*
X44288Y10100D02*
Y28000D01*
X44388Y10100D02*
Y28000D01*
X44488Y10100D02*
Y28000D01*
X44588Y10100D02*
Y28000D01*
X44688Y10100D02*
Y28000D01*
X44788Y10100D02*
Y28000D01*
X44888Y10100D02*
Y28000D01*
X44988Y10100D02*
Y28000D01*
X45088Y10100D02*
Y28000D01*
X45188Y10100D02*
Y28000D01*
X45288Y10100D02*
Y28000D01*
X45388Y10100D02*
Y28000D01*
X45488Y10100D02*
Y28000D01*
X45588Y10100D02*
Y28000D01*
X45688Y10100D02*
Y28000D01*
X45788Y10100D02*
Y28000D01*
X45888Y10100D02*
Y28000D01*
X45988Y10100D02*
Y28000D01*
X46088Y10100D02*
Y28000D01*
X46188Y10100D02*
Y28000D01*
X46288Y10100D02*
Y28000D01*
X46388Y10100D02*
Y28000D01*
X46488Y10100D02*
Y28000D01*
X46588Y10100D02*
Y28000D01*
X46688Y10100D02*
Y28000D01*
X46788Y10100D02*
Y28000D01*
X46888Y10100D02*
Y28000D01*
X46988Y10100D02*
Y28000D01*
X47088Y10100D02*
Y28000D01*
X47188Y10100D02*
Y28000D01*
X47288Y10100D02*
Y28000D01*
X47388Y10100D02*
Y28000D01*
X47488Y10100D02*
Y28000D01*
X47588Y10100D02*
Y28000D01*
X47688Y10100D02*
Y28000D01*
X47788Y10100D02*
Y28000D01*
X47888Y10100D02*
Y28000D01*
X47988Y10100D02*
Y28000D01*
X48088Y10100D02*
Y28000D01*
X48188Y10100D02*
Y28000D01*
X48288Y10100D02*
Y28000D01*
X48388Y10100D02*
Y28000D01*
X48488Y10100D02*
Y28000D01*
X48588Y10100D02*
Y28000D01*
X48688Y10100D02*
Y28000D01*
X48788Y10100D02*
Y28000D01*
X48888Y10100D02*
Y28000D01*
X48988Y10100D02*
Y28000D01*
X49088Y10100D02*
Y28000D01*
X49188Y10100D02*
Y28000D01*
X49288Y10100D02*
Y28000D01*
X49388Y10100D02*
Y28000D01*
X49488Y10100D02*
Y28000D01*
X49588Y10100D02*
Y28000D01*
X49688Y10100D02*
Y28000D01*
X49788Y10100D02*
Y28000D01*
X49888Y10100D02*
Y28000D01*
X49988Y10100D02*
Y28000D01*
X50088Y10100D02*
Y28000D01*
X50188Y10100D02*
Y28000D01*
X50288Y10100D02*
Y28000D01*
X50388Y10100D02*
Y28000D01*
X50488Y10100D02*
Y28000D01*
X50588Y10100D02*
Y28000D01*
X50688Y10100D02*
Y28000D01*
X50788Y10100D02*
Y28000D01*
X50888Y10100D02*
Y28000D01*
X50988Y10100D02*
Y28000D01*
X51088Y10100D02*
Y28000D01*
X51188Y10100D02*
Y28000D01*
X51288Y10100D02*
Y28000D01*
X51388Y10100D02*
Y28000D01*
X51488Y10100D02*
Y28000D01*
X51588Y10100D02*
Y28000D01*
X51688Y10100D02*
Y28000D01*
X51788Y10100D02*
Y28000D01*
X51888Y10100D02*
Y28000D01*
X51988Y10100D02*
Y28000D01*
X52088Y10100D02*
Y28000D01*
X52188Y10100D02*
Y28000D01*
X52288Y10100D02*
Y28000D01*
X52388Y10100D02*
Y28000D01*
X52488Y10100D02*
Y28000D01*
X52588Y10100D02*
Y28000D01*
X52688Y10100D02*
Y28000D01*
X52788Y10100D02*
Y28000D01*
X37908Y24708D02*
X54446D01*
X38008Y24808D02*
X54446D01*
X38108Y24908D02*
X54446D01*
X38208Y25008D02*
X54446D01*
X38308Y25108D02*
X54446D01*
X38408Y25208D02*
X54446D01*
X38508Y25308D02*
X54446D01*
X38608Y25408D02*
X54446D01*
X38708Y25508D02*
X54446D01*
X38808Y25608D02*
X54446D01*
X38908Y25708D02*
X54446D01*
X39008Y25808D02*
X54446D01*
X39108Y25908D02*
X54446D01*
X39208Y26008D02*
X54446D01*
X39308Y26108D02*
X54446D01*
X39408Y26208D02*
X54446D01*
X39508Y26308D02*
X54446D01*
X39608Y26408D02*
X54446D01*
X39708Y26508D02*
X54446D01*
X39808Y26608D02*
X54446D01*
X39908Y26708D02*
X54446D01*
X40008Y26808D02*
X54446D01*
X40108Y26908D02*
X54446D01*
X40208Y27008D02*
X54446D01*
X40308Y27108D02*
X54446D01*
X52888Y10100D02*
Y28000D01*
X52988Y10100D02*
Y28000D01*
X53088Y10100D02*
Y28000D01*
X40408Y27208D02*
X54446D01*
X40508Y27308D02*
X54446D01*
X53188Y10100D02*
Y28000D01*
X40608Y27408D02*
X54446D01*
X40708Y27508D02*
X54446D01*
X40808Y27608D02*
X54446D01*
X40908Y27708D02*
X54446D01*
X41008Y27808D02*
X54446D01*
X41108Y27908D02*
X54446D01*
X41200Y28000D02*
X54446D01*
X53288Y10100D02*
Y28000D01*
X53388Y10100D02*
Y28000D01*
X53488Y10100D02*
Y28000D01*
X53588Y10100D02*
Y28000D01*
X53688Y10100D02*
Y28000D01*
X53788Y10100D02*
Y28000D01*
X53888Y10100D02*
Y28000D01*
X53988Y10100D02*
Y28000D01*
X54088Y10100D02*
Y28000D01*
X54188Y10100D02*
Y28000D01*
X54288Y10100D02*
Y28000D01*
X54388Y10100D02*
Y28000D01*
X54446Y10100D02*
Y28000D01*
X32500Y39200D02*
X54446D01*
X32500Y39208D02*
X54446D01*
X32500Y39308D02*
X54446D01*
X32500Y39408D02*
X54446D01*
X32500Y39508D02*
X54446D01*
X32500Y39608D02*
X54446D01*
X32500Y39708D02*
X54446D01*
X32500Y39808D02*
X54446D01*
X32500Y39908D02*
X54446D01*
X32500Y40008D02*
X54446D01*
X32500Y40108D02*
X54446D01*
X32500Y40208D02*
X54446D01*
X32500Y39200D02*
Y55600D01*
X32588Y39200D02*
Y55600D01*
X32688Y39200D02*
Y55600D01*
X32500Y40308D02*
X54446D01*
X32500Y40408D02*
X54446D01*
X32500Y40508D02*
X54446D01*
X32500Y40608D02*
X54446D01*
X32500Y40708D02*
X54446D01*
X32500Y40808D02*
X54446D01*
X32500Y40908D02*
X54446D01*
X32500Y41008D02*
X54446D01*
X32500Y41108D02*
X54446D01*
X32788Y39200D02*
Y55600D01*
X32888Y39200D02*
Y55600D01*
X32988Y39200D02*
Y55600D01*
X33088Y39200D02*
Y55600D01*
X33188Y39200D02*
Y55600D01*
X33288Y39200D02*
Y55600D01*
X33388Y39200D02*
Y55600D01*
X33488Y39200D02*
Y55600D01*
X33588Y39200D02*
Y55600D01*
X33688Y39200D02*
Y55600D01*
X33788Y39200D02*
Y55600D01*
X33888Y39200D02*
Y55600D01*
X33988Y39200D02*
Y55600D01*
X34088Y39200D02*
Y55600D01*
X34188Y39200D02*
Y55600D01*
X34288Y39200D02*
Y55600D01*
X34388Y39200D02*
Y55600D01*
X34488Y39200D02*
Y55600D01*
X34588Y39200D02*
Y55600D01*
X34688Y39200D02*
Y55600D01*
X34788Y39200D02*
Y55600D01*
X34888Y39200D02*
Y55600D01*
X34988Y39200D02*
Y55600D01*
X35088Y39200D02*
Y55600D01*
X32500Y41208D02*
X54446D01*
X32500Y41308D02*
X54446D01*
X32500Y41408D02*
X54446D01*
X32500Y41508D02*
X54446D01*
X32500Y41608D02*
X54446D01*
X32500Y41708D02*
X54446D01*
X32500Y41808D02*
X54446D01*
X32500Y41908D02*
X54446D01*
X32500Y42008D02*
X54446D01*
X32500Y42108D02*
X54446D01*
X32500Y42208D02*
X54446D01*
X32500Y42308D02*
X54446D01*
X32500Y42408D02*
X54446D01*
X32500Y42508D02*
X54446D01*
X32500Y42608D02*
X54446D01*
X32500Y42708D02*
X54446D01*
X32500Y42808D02*
X54446D01*
X32500Y42908D02*
X54446D01*
X32500Y43008D02*
X54446D01*
X32500Y43108D02*
X54446D01*
X32500Y43208D02*
X54446D01*
X32500Y43308D02*
X54446D01*
X32500Y43408D02*
X54446D01*
X32500Y43508D02*
X54446D01*
X32500Y43608D02*
X54446D01*
X32500Y43708D02*
X54446D01*
X32500Y43808D02*
X54446D01*
X32500Y43908D02*
X54446D01*
X32500Y44008D02*
X54446D01*
X32500Y44108D02*
X54446D01*
X32500Y44208D02*
X54446D01*
X32500Y44308D02*
X54446D01*
X32500Y44408D02*
X54446D01*
X32500Y44508D02*
X54446D01*
X32500Y44608D02*
X54446D01*
X32500Y44708D02*
X54446D01*
X32500Y44808D02*
X54446D01*
X32500Y44908D02*
X54446D01*
X32500Y45008D02*
X54446D01*
X32500Y45108D02*
X54446D01*
X32500Y45208D02*
X54446D01*
X32500Y45308D02*
X54446D01*
X32500Y45408D02*
X54446D01*
X32500Y45508D02*
X54446D01*
X32500Y45608D02*
X54446D01*
X32500Y45708D02*
X54446D01*
X32500Y45808D02*
X54446D01*
X32500Y45908D02*
X54446D01*
X32500Y46008D02*
X54446D01*
X32500Y46108D02*
X54446D01*
X32500Y46208D02*
X54446D01*
X32500Y46308D02*
X54446D01*
X32500Y46408D02*
X54446D01*
X32500Y46508D02*
X54446D01*
X32500Y46608D02*
X54446D01*
X32500Y46708D02*
X54446D01*
X32500Y46808D02*
X54446D01*
X32500Y46908D02*
X54446D01*
X32500Y47008D02*
X54446D01*
X32500Y47108D02*
X54446D01*
X32500Y47208D02*
X54446D01*
X32500Y47308D02*
X54446D01*
X32500Y47408D02*
X54446D01*
X32500Y47508D02*
X54446D01*
X32500Y47608D02*
X54446D01*
X32500Y47708D02*
X54446D01*
X32500Y47808D02*
X54446D01*
X32500Y47908D02*
X54446D01*
X32500Y48008D02*
X54446D01*
X32500Y48108D02*
X54446D01*
X32500Y48208D02*
X54446D01*
X32500Y48308D02*
X54446D01*
X32500Y48408D02*
X54446D01*
X32500Y48508D02*
X54446D01*
X32500Y48608D02*
X54446D01*
X32500Y48708D02*
X54446D01*
X32500Y48808D02*
X54446D01*
X32500Y48908D02*
X54446D01*
X32500Y49008D02*
X54446D01*
X32500Y49108D02*
X54446D01*
X32500Y49208D02*
X54446D01*
X32500Y49308D02*
X54446D01*
X32500Y49408D02*
X54446D01*
X32500Y49508D02*
X54446D01*
X32500Y49608D02*
X54446D01*
X32500Y49708D02*
X54446D01*
X32500Y49808D02*
X54446D01*
X32500Y49908D02*
X54446D01*
X32500Y50008D02*
X54446D01*
X32500Y50108D02*
X54446D01*
X32500Y50208D02*
X54446D01*
X32500Y50308D02*
X54446D01*
X32500Y50408D02*
X54446D01*
X32500Y50508D02*
X54446D01*
X32500Y50608D02*
X54446D01*
X32500Y50708D02*
X54446D01*
X32500Y50808D02*
X54446D01*
X32500Y50908D02*
X54446D01*
X32500Y51008D02*
X54446D01*
X32500Y51108D02*
X54446D01*
X32500Y51208D02*
X54446D01*
X32500Y51308D02*
X54446D01*
X32500Y51408D02*
X54446D01*
X32500Y51508D02*
X54446D01*
X32500Y51608D02*
X54446D01*
X32500Y51708D02*
X54446D01*
X32500Y51808D02*
X54446D01*
X32500Y51908D02*
X54446D01*
X32500Y52008D02*
X54446D01*
X32500Y52108D02*
X54446D01*
X32500Y52208D02*
X54446D01*
X32500Y52308D02*
X54446D01*
X32500Y52408D02*
X54446D01*
X32500Y52508D02*
X54446D01*
X32500Y52608D02*
X54446D01*
X32500Y52708D02*
X54446D01*
X32500Y52808D02*
X54446D01*
X32500Y52908D02*
X54446D01*
X32500Y53008D02*
X54446D01*
X32500Y53108D02*
X54446D01*
X32500Y53208D02*
X54446D01*
X32500Y53308D02*
X54446D01*
X32500Y53408D02*
X54446D01*
X32500Y53508D02*
X54446D01*
X32500Y53608D02*
X54446D01*
X32500Y53708D02*
X54446D01*
X32500Y53808D02*
X54446D01*
X32500Y53908D02*
X54446D01*
X32500Y54008D02*
X54446D01*
X32500Y54108D02*
X54446D01*
X32500Y54208D02*
X54446D01*
X32500Y54308D02*
X54446D01*
X32500Y54408D02*
X54446D01*
X32500Y54508D02*
X54446D01*
X32500Y54608D02*
X54446D01*
X32500Y54708D02*
X54446D01*
X32500Y54808D02*
X54446D01*
X32500Y54908D02*
X54446D01*
X32500Y55008D02*
X54446D01*
X32500Y55108D02*
X54446D01*
X32500Y55208D02*
X54446D01*
X32500Y55308D02*
X54446D01*
X32500Y55408D02*
X54446D01*
X32500Y55508D02*
X54446D01*
X32500Y55600D02*
X54446D01*
X35188Y39200D02*
Y55600D01*
X35288Y39200D02*
Y55600D01*
X35388Y39200D02*
Y55600D01*
X35488Y39200D02*
Y55600D01*
X35588Y39200D02*
Y55600D01*
X35688Y39200D02*
Y55600D01*
X35788Y39200D02*
Y55600D01*
X35888Y39200D02*
Y55600D01*
X35988Y39200D02*
Y55600D01*
X36088Y39200D02*
Y55600D01*
X36188Y39200D02*
Y55600D01*
X36288Y39200D02*
Y55600D01*
X36388Y39200D02*
Y55600D01*
X36488Y39200D02*
Y55600D01*
X36588Y39200D02*
Y55600D01*
X36688Y39200D02*
Y55600D01*
X36788Y39200D02*
Y55600D01*
X36888Y39200D02*
Y55600D01*
X36988Y39200D02*
Y55600D01*
X37088Y39200D02*
Y55600D01*
X37188Y39200D02*
Y55600D01*
X37288Y39200D02*
Y55600D01*
X37388Y39200D02*
Y55600D01*
X37488Y39200D02*
Y55600D01*
X37588Y39200D02*
Y55600D01*
X37688Y39200D02*
Y55600D01*
X37788Y39200D02*
Y55600D01*
X37888Y39200D02*
Y55600D01*
X37988Y39200D02*
Y55600D01*
X38088Y39200D02*
Y55600D01*
X38188Y39200D02*
Y55600D01*
X38288Y39200D02*
Y55600D01*
X38388Y39200D02*
Y55600D01*
X38488Y39200D02*
Y55600D01*
X38588Y39200D02*
Y55600D01*
X38688Y39200D02*
Y55600D01*
X38788Y39200D02*
Y55600D01*
X38888Y39200D02*
Y55600D01*
X38988Y39200D02*
Y55600D01*
X39088Y39200D02*
Y55600D01*
X39188Y39200D02*
Y55600D01*
X39288Y39200D02*
Y55600D01*
X39388Y39200D02*
Y55600D01*
X39488Y39200D02*
Y55600D01*
X39588Y39200D02*
Y55600D01*
X39688Y39200D02*
Y55600D01*
X39788Y39200D02*
Y55600D01*
X39888Y39200D02*
Y55600D01*
X39988Y39200D02*
Y55600D01*
X40088Y39200D02*
Y55600D01*
X40188Y39200D02*
Y55600D01*
X40288Y39200D02*
Y55600D01*
X40388Y39200D02*
Y55600D01*
X40488Y39200D02*
Y55600D01*
X40588Y39200D02*
Y55600D01*
X40688Y39200D02*
Y55600D01*
X40788Y39200D02*
Y55600D01*
X40888Y39200D02*
Y55600D01*
X40988Y39200D02*
Y55600D01*
X41088Y39200D02*
Y55600D01*
X41188Y39200D02*
Y55600D01*
X41288Y39200D02*
Y55600D01*
X41388Y39200D02*
Y55600D01*
X41488Y39200D02*
Y55600D01*
X41588Y39200D02*
Y55600D01*
X41688Y39200D02*
Y55600D01*
X41788Y39200D02*
Y55600D01*
X41888Y39200D02*
Y55600D01*
X41988Y39200D02*
Y55600D01*
X42088Y39200D02*
Y55600D01*
X42188Y39200D02*
Y55600D01*
X42288Y39200D02*
Y55600D01*
X42388Y39200D02*
Y55600D01*
X42488Y39200D02*
Y55600D01*
X42588Y39200D02*
Y55600D01*
X42688Y39200D02*
Y55600D01*
X42788Y39200D02*
Y55600D01*
X42888Y39200D02*
Y55600D01*
X42988Y39200D02*
Y55600D01*
X43088Y39200D02*
Y55600D01*
X43188Y39200D02*
Y55600D01*
X43288Y39200D02*
Y55600D01*
X43388Y39200D02*
Y55600D01*
X43488Y39200D02*
Y55600D01*
X43588Y39200D02*
Y55600D01*
X43688Y39200D02*
Y55600D01*
X43788Y39200D02*
Y55600D01*
X43888Y39200D02*
Y55600D01*
X43988Y39200D02*
Y55600D01*
X44088Y39200D02*
Y55600D01*
X44188Y39200D02*
Y55600D01*
X44288Y39200D02*
Y55600D01*
X44388Y39200D02*
Y55600D01*
X44488Y39200D02*
Y55600D01*
X44588Y39200D02*
Y55600D01*
X44688Y39200D02*
Y55600D01*
X44788Y39200D02*
Y55600D01*
X44888Y39200D02*
Y55600D01*
X44988Y39200D02*
Y55600D01*
X45088Y39200D02*
Y55600D01*
X45188Y39200D02*
Y55600D01*
X45288Y39200D02*
Y55600D01*
X45388Y39200D02*
Y55600D01*
X45488Y39200D02*
Y55600D01*
X45588Y39200D02*
Y55600D01*
X45688Y39200D02*
Y55600D01*
X45788Y39200D02*
Y55600D01*
X45888Y39200D02*
Y55600D01*
X45988Y39200D02*
Y55600D01*
X46088Y39200D02*
Y55600D01*
X46188Y39200D02*
Y55600D01*
X46288Y39200D02*
Y55600D01*
X46388Y39200D02*
Y55600D01*
X46488Y39200D02*
Y55600D01*
X46588Y39200D02*
Y55600D01*
X46688Y39200D02*
Y55600D01*
X46788Y39200D02*
Y55600D01*
X46888Y39200D02*
Y55600D01*
X46988Y39200D02*
Y55600D01*
X47088Y39200D02*
Y55600D01*
X47188Y39200D02*
Y55600D01*
X47288Y39200D02*
Y55600D01*
X47388Y39200D02*
Y55600D01*
X47488Y39200D02*
Y55600D01*
X47588Y39200D02*
Y55600D01*
X47688Y39200D02*
Y55600D01*
X47788Y39200D02*
Y55600D01*
X47888Y39200D02*
Y55600D01*
X47988Y39200D02*
Y55600D01*
X48088Y39200D02*
Y55600D01*
X48188Y39200D02*
Y55600D01*
X48288Y39200D02*
Y55600D01*
X48388Y39200D02*
Y55600D01*
X48488Y39200D02*
Y55600D01*
X48588Y39200D02*
Y55600D01*
X48688Y39200D02*
Y55600D01*
X48788Y39200D02*
Y55600D01*
X48888Y39200D02*
Y55600D01*
X48988Y39200D02*
Y55600D01*
X49088Y39200D02*
Y55600D01*
X49188Y39200D02*
Y55600D01*
X49288Y39200D02*
Y55600D01*
X49388Y39200D02*
Y55600D01*
X49488Y39200D02*
Y55600D01*
X49588Y39200D02*
Y55600D01*
X49688Y39200D02*
Y55600D01*
X49788Y39200D02*
Y55600D01*
X49888Y39200D02*
Y55600D01*
X49988Y39200D02*
Y55600D01*
X50088Y39200D02*
Y55600D01*
X50188Y39200D02*
Y55600D01*
X50288Y39200D02*
Y55600D01*
X50388Y39200D02*
Y55600D01*
X50488Y39200D02*
Y55600D01*
X50588Y39200D02*
Y55600D01*
X50688Y39200D02*
Y55600D01*
X50788Y39200D02*
Y55600D01*
X50888Y39200D02*
Y55600D01*
X50988Y39200D02*
Y55600D01*
X51088Y39200D02*
Y55600D01*
X51188Y39200D02*
Y55600D01*
X51288Y39200D02*
Y55600D01*
X51388Y39200D02*
Y55600D01*
X51488Y39200D02*
Y55600D01*
X51588Y39200D02*
Y55600D01*
X51688Y39200D02*
Y55600D01*
X51788Y39200D02*
Y55600D01*
X51888Y39200D02*
Y55600D01*
X51988Y39200D02*
Y55600D01*
X52088Y39200D02*
Y55600D01*
X52188Y39200D02*
Y55600D01*
X52288Y39200D02*
Y55600D01*
X52388Y39200D02*
Y55600D01*
X52488Y39200D02*
Y55600D01*
X52588Y39200D02*
Y55600D01*
X52688Y39200D02*
Y55600D01*
X52788Y39200D02*
Y55600D01*
X52888Y39200D02*
Y55600D01*
X52988Y39200D02*
Y55600D01*
X53088Y39200D02*
Y55600D01*
X53188Y39200D02*
Y55600D01*
X53288Y39200D02*
Y55600D01*
X53388Y39200D02*
Y55600D01*
X53488Y39200D02*
Y55600D01*
X53588Y39200D02*
Y55600D01*
X53688Y39200D02*
Y55600D01*
X53788Y39200D02*
Y55600D01*
X53888Y39200D02*
Y55600D01*
X53988Y39200D02*
Y55600D01*
X54088Y39200D02*
Y55600D01*
X54188Y39200D02*
Y55600D01*
X54288Y39200D02*
Y55600D01*
X54388Y39200D02*
Y55600D01*
X54446Y39200D02*
Y55600D01*
X32400Y67300D02*
X54446D01*
X32400Y67308D02*
X54446D01*
X32400Y67408D02*
X54446D01*
X32400Y67508D02*
X54446D01*
X32400Y67608D02*
X54446D01*
X32400Y67708D02*
X54446D01*
X32400Y67808D02*
X54446D01*
X32400Y67908D02*
X54446D01*
X32400Y68008D02*
X54446D01*
X32400Y68108D02*
X54446D01*
X32400Y68208D02*
X54446D01*
X32400Y68308D02*
X54446D01*
X32400Y68408D02*
X54446D01*
X32400Y68508D02*
X54446D01*
X32400Y68608D02*
X54446D01*
X32400Y68708D02*
X54446D01*
X32400Y68808D02*
X54446D01*
X32400Y68908D02*
X54446D01*
X32400Y69008D02*
X54446D01*
X32400Y69108D02*
X54446D01*
X32400Y69208D02*
X54446D01*
X32400Y69308D02*
X54446D01*
X32400Y69408D02*
X54446D01*
X32400Y69508D02*
X54446D01*
X32400Y67300D02*
Y84200D01*
X32488Y67300D02*
Y84200D01*
X32588Y67300D02*
Y84200D01*
X32688Y67300D02*
Y84200D01*
X32788Y67300D02*
Y84200D01*
X32888Y67300D02*
Y84200D01*
X32988Y67300D02*
Y84200D01*
X33088Y67300D02*
Y84200D01*
X33188Y67300D02*
Y84200D01*
X33288Y67300D02*
Y84200D01*
X33388Y67300D02*
Y84200D01*
X33488Y67300D02*
Y84200D01*
X33588Y67300D02*
Y84200D01*
X33688Y67300D02*
Y84200D01*
X33788Y67300D02*
Y84200D01*
X33888Y67300D02*
Y84200D01*
X33988Y67300D02*
Y84200D01*
X34088Y67300D02*
Y84200D01*
X34188Y67300D02*
Y84200D01*
X34288Y67300D02*
Y84200D01*
X34388Y67300D02*
Y84200D01*
X34488Y67300D02*
Y84200D01*
X34588Y67300D02*
Y84200D01*
X34688Y67300D02*
Y84200D01*
X34788Y67300D02*
Y84200D01*
X32400Y69608D02*
X54446D01*
X32400Y69708D02*
X54446D01*
X32400Y69808D02*
X54446D01*
X32400Y69908D02*
X54446D01*
X32400Y70008D02*
X54446D01*
X32400Y70108D02*
X54446D01*
X32400Y70208D02*
X54446D01*
X32400Y70308D02*
X54446D01*
X32400Y70408D02*
X54446D01*
X32400Y70508D02*
X54446D01*
X32400Y70608D02*
X54446D01*
X32400Y70708D02*
X54446D01*
X32400Y70808D02*
X54446D01*
X32400Y70908D02*
X54446D01*
X32400Y71008D02*
X54446D01*
X32400Y71108D02*
X54446D01*
X32400Y71208D02*
X54446D01*
X32400Y71308D02*
X54446D01*
X32400Y71408D02*
X54446D01*
X32400Y71508D02*
X54446D01*
X32400Y71608D02*
X54446D01*
X32400Y71708D02*
X54446D01*
X32400Y71808D02*
X54446D01*
X32400Y71908D02*
X54446D01*
X32400Y72008D02*
X54446D01*
X32400Y72108D02*
X54446D01*
X32400Y72208D02*
X54446D01*
X32400Y72308D02*
X54446D01*
X32400Y72408D02*
X54446D01*
X32400Y72508D02*
X54446D01*
X32400Y72608D02*
X54446D01*
X32400Y72708D02*
X54446D01*
X32400Y72808D02*
X54446D01*
X32400Y72908D02*
X54446D01*
X32400Y73008D02*
X54446D01*
X32400Y73108D02*
X54446D01*
X32400Y73208D02*
X54446D01*
X32400Y73308D02*
X54446D01*
X32400Y73408D02*
X54446D01*
X32400Y73508D02*
X54446D01*
X32400Y73608D02*
X54446D01*
X32400Y73708D02*
X54446D01*
X32400Y73808D02*
X54446D01*
X32400Y73908D02*
X54446D01*
X32400Y74008D02*
X54446D01*
X32400Y74108D02*
X54446D01*
X32400Y74208D02*
X54446D01*
X32400Y74308D02*
X54446D01*
X32400Y74408D02*
X54446D01*
X32400Y74508D02*
X54446D01*
X32400Y74608D02*
X54446D01*
X32400Y74708D02*
X54446D01*
X32400Y74808D02*
X54446D01*
X32400Y74908D02*
X54446D01*
X32400Y75008D02*
X54446D01*
X32400Y75108D02*
X54446D01*
X32400Y75208D02*
X54446D01*
X32400Y75308D02*
X54446D01*
X32400Y75408D02*
X54446D01*
X32400Y75508D02*
X54446D01*
X32400Y75608D02*
X54446D01*
X32400Y75708D02*
X54446D01*
X32400Y75808D02*
X54446D01*
X32400Y75908D02*
X54446D01*
X32400Y76008D02*
X54446D01*
X32400Y76108D02*
X54446D01*
X32400Y76208D02*
X54446D01*
X32400Y76308D02*
X54446D01*
X32400Y76408D02*
X54446D01*
X32400Y76508D02*
X54446D01*
X32400Y76608D02*
X54446D01*
X32400Y76708D02*
X54446D01*
X32400Y76808D02*
X54446D01*
X32400Y76908D02*
X54446D01*
X32400Y77008D02*
X54446D01*
X32400Y77108D02*
X54446D01*
X32400Y77208D02*
X54446D01*
X32400Y77308D02*
X54446D01*
X32400Y77408D02*
X54446D01*
X32400Y77508D02*
X54446D01*
X32400Y77608D02*
X54446D01*
X32400Y77708D02*
X54446D01*
X32400Y77808D02*
X54446D01*
X32400Y77908D02*
X54446D01*
X32400Y78008D02*
X54446D01*
X32400Y78108D02*
X54446D01*
X32400Y78208D02*
X54446D01*
X32400Y78308D02*
X54446D01*
X32400Y78408D02*
X54446D01*
X32400Y78508D02*
X54446D01*
X32400Y78608D02*
X54446D01*
X32400Y78708D02*
X54446D01*
X32400Y78808D02*
X54446D01*
X32400Y78908D02*
X54446D01*
X32400Y79008D02*
X54446D01*
X32400Y79108D02*
X54446D01*
X32400Y79208D02*
X54446D01*
X32400Y79308D02*
X54446D01*
X32400Y79408D02*
X54446D01*
X32400Y79508D02*
X54446D01*
X32400Y79608D02*
X54446D01*
X32400Y79708D02*
X54446D01*
X32400Y79808D02*
X54446D01*
X32400Y79908D02*
X54446D01*
X32400Y80008D02*
X54446D01*
X32400Y80108D02*
X54446D01*
X32400Y80208D02*
X54446D01*
X32400Y80308D02*
X54446D01*
X32400Y80408D02*
X54446D01*
X32400Y80508D02*
X54446D01*
X32400Y80608D02*
X54446D01*
X32400Y80708D02*
X54446D01*
X32400Y80808D02*
X54446D01*
X32400Y80908D02*
X54446D01*
X32400Y81008D02*
X54446D01*
X32400Y81108D02*
X54446D01*
X32400Y81208D02*
X54446D01*
X32400Y81308D02*
X54446D01*
X32400Y81408D02*
X54446D01*
X32400Y81508D02*
X54446D01*
X32400Y81608D02*
X54446D01*
X32400Y81708D02*
X54446D01*
X32400Y81808D02*
X54446D01*
X32400Y81908D02*
X54446D01*
X32400Y82008D02*
X54446D01*
X32400Y82108D02*
X54446D01*
X32400Y82208D02*
X54446D01*
X32400Y82308D02*
X54446D01*
X32400Y82408D02*
X54446D01*
X32400Y82508D02*
X54446D01*
X32400Y82608D02*
X54446D01*
X32400Y82708D02*
X54446D01*
X32400Y82808D02*
X54446D01*
X32400Y82908D02*
X54446D01*
X32400Y83008D02*
X54446D01*
X32400Y83108D02*
X54446D01*
X32400Y83208D02*
X54446D01*
X32400Y83308D02*
X54446D01*
X32400Y83408D02*
X54446D01*
X32400Y83508D02*
X54446D01*
X32400Y83608D02*
X54446D01*
X32400Y83708D02*
X54446D01*
X32400Y83808D02*
X54446D01*
X32400Y83908D02*
X54446D01*
X32400Y84008D02*
X54446D01*
X32400Y84108D02*
X54446D01*
X32400Y84200D02*
X54446D01*
X34888Y67300D02*
Y84200D01*
X34988Y67300D02*
Y84200D01*
X35088Y67300D02*
Y84200D01*
X35188Y67300D02*
Y84200D01*
X35288Y67300D02*
Y84200D01*
X35388Y67300D02*
Y84200D01*
X35488Y67300D02*
Y84200D01*
X35588Y67300D02*
Y84200D01*
X35688Y67300D02*
Y84200D01*
X35788Y67300D02*
Y84200D01*
X35888Y67300D02*
Y84200D01*
X35988Y67300D02*
Y84200D01*
X36088Y67300D02*
Y84200D01*
X36188Y67300D02*
Y84200D01*
X36288Y67300D02*
Y84200D01*
X36388Y67300D02*
Y84200D01*
X36488Y67300D02*
Y84200D01*
X36588Y67300D02*
Y84200D01*
X36688Y67300D02*
Y84200D01*
X36788Y67300D02*
Y84200D01*
X36888Y67300D02*
Y84200D01*
X36988Y67300D02*
Y84200D01*
X37088Y67300D02*
Y84200D01*
X37188Y67300D02*
Y84200D01*
X37288Y67300D02*
Y84200D01*
X37388Y67300D02*
Y84200D01*
X37488Y67300D02*
Y84200D01*
X37588Y67300D02*
Y84200D01*
X37688Y67300D02*
Y84200D01*
X37788Y67300D02*
Y84200D01*
X37888Y67300D02*
Y84200D01*
X37988Y67300D02*
Y84200D01*
X38088Y67300D02*
Y84200D01*
X38188Y67300D02*
Y84200D01*
X38288Y67300D02*
Y84200D01*
X38388Y67300D02*
Y84200D01*
X38488Y67300D02*
Y84200D01*
X38588Y67300D02*
Y84200D01*
X38688Y67300D02*
Y84200D01*
X38788Y67300D02*
Y84200D01*
X38888Y67300D02*
Y84200D01*
X38988Y67300D02*
Y84200D01*
X39088Y67300D02*
Y84200D01*
X39188Y67300D02*
Y84200D01*
X39288Y67300D02*
Y84200D01*
X39388Y67300D02*
Y84200D01*
X39488Y67300D02*
Y84200D01*
X39588Y67300D02*
Y84200D01*
X39688Y67300D02*
Y84200D01*
X39788Y67300D02*
Y84200D01*
X39888Y67300D02*
Y84200D01*
X39988Y67300D02*
Y84200D01*
X40088Y67300D02*
Y84200D01*
X40188Y67300D02*
Y84200D01*
X40288Y67300D02*
Y84200D01*
X40388Y67300D02*
Y84200D01*
X40488Y67300D02*
Y84200D01*
X40588Y67300D02*
Y84200D01*
X40688Y67300D02*
Y84200D01*
X40788Y67300D02*
Y84200D01*
X40888Y67300D02*
Y84200D01*
X40988Y67300D02*
Y84200D01*
X41088Y67300D02*
Y84200D01*
X41188Y67300D02*
Y84200D01*
X41288Y67300D02*
Y84200D01*
X41388Y67300D02*
Y84200D01*
X41488Y67300D02*
Y84200D01*
X41588Y67300D02*
Y84200D01*
X41688Y67300D02*
Y84200D01*
X41788Y67300D02*
Y84200D01*
X41888Y67300D02*
Y84200D01*
X41988Y67300D02*
Y84200D01*
X42088Y67300D02*
Y84200D01*
X42188Y67300D02*
Y84200D01*
X42288Y67300D02*
Y84200D01*
X42388Y67300D02*
Y84200D01*
X42488Y67300D02*
Y84200D01*
X42588Y67300D02*
Y84200D01*
X42688Y67300D02*
Y84200D01*
X42788Y67300D02*
Y84200D01*
X42888Y67300D02*
Y84200D01*
X42988Y67300D02*
Y84200D01*
X43088Y67300D02*
Y84200D01*
X43188Y67300D02*
Y84200D01*
X43288Y67300D02*
Y84200D01*
X43388Y67300D02*
Y84200D01*
X43488Y67300D02*
Y84200D01*
X43588Y67300D02*
Y84200D01*
X43688Y67300D02*
Y84200D01*
X43788Y67300D02*
Y84200D01*
X43888Y67300D02*
Y84200D01*
X43988Y67300D02*
Y84200D01*
X44088Y67300D02*
Y84200D01*
X44188Y67300D02*
Y84200D01*
X44288Y67300D02*
Y84200D01*
X44388Y67300D02*
Y84200D01*
X44488Y67300D02*
Y84200D01*
X44588Y67300D02*
Y84200D01*
X44688Y67300D02*
Y84200D01*
X44788Y67300D02*
Y84200D01*
X44888Y67300D02*
Y84200D01*
X44988Y67300D02*
Y84200D01*
X45088Y67300D02*
Y84200D01*
X45188Y67300D02*
Y84200D01*
X45288Y67300D02*
Y84200D01*
X45388Y67300D02*
Y84200D01*
X45488Y67300D02*
Y84200D01*
X45588Y67300D02*
Y84200D01*
X45688Y67300D02*
Y84200D01*
X45788Y67300D02*
Y84200D01*
X45888Y67300D02*
Y84200D01*
X45988Y67300D02*
Y84200D01*
X46088Y67300D02*
Y84200D01*
X46188Y67300D02*
Y84200D01*
X46288Y67300D02*
Y84200D01*
X46388Y67300D02*
Y84200D01*
X46488Y67300D02*
Y84200D01*
X46588Y67300D02*
Y84200D01*
X46688Y67300D02*
Y84200D01*
X46788Y67300D02*
Y84200D01*
X46888Y67300D02*
Y84200D01*
X46988Y67300D02*
Y84200D01*
X47088Y67300D02*
Y84200D01*
X47188Y67300D02*
Y84200D01*
X47288Y67300D02*
Y84200D01*
X47388Y67300D02*
Y84200D01*
X47488Y67300D02*
Y84200D01*
X47588Y67300D02*
Y84200D01*
X47688Y67300D02*
Y84200D01*
X47788Y67300D02*
Y84200D01*
X47888Y67300D02*
Y84200D01*
X47988Y67300D02*
Y84200D01*
X48088Y67300D02*
Y84200D01*
X48188Y67300D02*
Y84200D01*
X48288Y67300D02*
Y84200D01*
X48388Y67300D02*
Y84200D01*
X48488Y67300D02*
Y84200D01*
X48588Y67300D02*
Y84200D01*
X48688Y67300D02*
Y84200D01*
X48788Y67300D02*
Y84200D01*
X48888Y67300D02*
Y84200D01*
X48988Y67300D02*
Y84200D01*
X49088Y67300D02*
Y84200D01*
X49188Y67300D02*
Y84200D01*
X49288Y67300D02*
Y84200D01*
X49388Y67300D02*
Y84200D01*
X49488Y67300D02*
Y84200D01*
X49588Y67300D02*
Y84200D01*
X49688Y67300D02*
Y84200D01*
X49788Y67300D02*
Y84200D01*
X49888Y67300D02*
Y84200D01*
X49988Y67300D02*
Y84200D01*
X50088Y67300D02*
Y84200D01*
X50188Y67300D02*
Y84200D01*
X50288Y67300D02*
Y84200D01*
X50388Y67300D02*
Y84200D01*
X50488Y67300D02*
Y84200D01*
X50588Y67300D02*
Y84200D01*
X50688Y67300D02*
Y84200D01*
X50788Y67300D02*
Y84200D01*
X50888Y67300D02*
Y84200D01*
X50988Y67300D02*
Y84200D01*
X51088Y67300D02*
Y84200D01*
X51188Y67300D02*
Y84200D01*
X51288Y67300D02*
Y84200D01*
X51388Y67300D02*
Y84200D01*
X51488Y67300D02*
Y84200D01*
X51588Y67300D02*
Y84200D01*
X51688Y67300D02*
Y84200D01*
X51788Y67300D02*
Y84200D01*
X51888Y67300D02*
Y84200D01*
X51988Y67300D02*
Y84200D01*
X52088Y67300D02*
Y84200D01*
X52188Y67300D02*
Y84200D01*
X52288Y67300D02*
Y84200D01*
X52388Y67300D02*
Y84200D01*
X52488Y67300D02*
Y84200D01*
X52588Y67300D02*
Y84200D01*
X52688Y67300D02*
Y84200D01*
X52788Y67300D02*
Y84200D01*
X52888Y67300D02*
Y84200D01*
X52988Y67300D02*
Y84200D01*
X53088Y67300D02*
Y84200D01*
X53188Y67300D02*
Y84200D01*
X53288Y67300D02*
Y84200D01*
X53388Y67300D02*
Y84200D01*
X53488Y67300D02*
Y84200D01*
X53588Y67300D02*
Y84200D01*
X53688Y67300D02*
Y84200D01*
X53788Y67300D02*
Y84200D01*
X53888Y67300D02*
Y84200D01*
X53988Y67300D02*
Y84200D01*
X54088Y67300D02*
Y84200D01*
X54188Y67300D02*
Y84200D01*
X54288Y67300D02*
Y84200D01*
X54388Y67300D02*
Y84200D01*
X54446Y67300D02*
Y84200D01*
X554Y10600D02*
X10800D01*
X554Y10608D02*
X22200D01*
X554Y10708D02*
X22200D01*
X554Y10808D02*
X22200D01*
X554Y10908D02*
X22200D01*
X554Y11008D02*
X22200D01*
X554Y11108D02*
X22200D01*
X554Y11208D02*
X22200D01*
X554Y11308D02*
X22200D01*
X554Y11408D02*
X22200D01*
X554Y11508D02*
X22200D01*
X554Y11608D02*
X22200D01*
X554Y11708D02*
X22200D01*
X554Y10600D02*
Y27800D01*
X588Y10600D02*
Y27800D01*
X688Y10600D02*
Y27800D01*
X788Y10600D02*
Y27800D01*
X888Y10600D02*
Y27800D01*
X988Y10600D02*
Y27800D01*
X1088Y10600D02*
Y27800D01*
X1188Y10600D02*
Y27800D01*
X1288Y10600D02*
Y27800D01*
X1388Y10600D02*
Y27800D01*
X1488Y10600D02*
Y27800D01*
X1588Y10600D02*
Y27800D01*
X1688Y10600D02*
Y27800D01*
X1788Y10600D02*
Y27800D01*
X1888Y10600D02*
Y27800D01*
X1988Y10600D02*
Y27800D01*
X2088Y10600D02*
Y27800D01*
X2188Y10600D02*
Y27800D01*
X2288Y10600D02*
Y27800D01*
X2388Y10600D02*
Y27800D01*
X2488Y10600D02*
Y27800D01*
X2588Y10600D02*
Y27800D01*
X2688Y10600D02*
Y27800D01*
X2788Y10600D02*
Y27800D01*
X2888Y10600D02*
Y27800D01*
X2988Y10600D02*
Y27800D01*
X3088Y10600D02*
Y27800D01*
X3188Y10600D02*
Y27800D01*
X3288Y10600D02*
Y27800D01*
X3388Y10600D02*
Y27800D01*
X3488Y10600D02*
Y27800D01*
X3588Y10600D02*
Y27800D01*
X3688Y10600D02*
Y27800D01*
X3788Y10600D02*
Y27800D01*
X3888Y10600D02*
Y27800D01*
X3988Y10600D02*
Y27800D01*
X4088Y10600D02*
Y27800D01*
X4188Y10600D02*
Y27800D01*
X4288Y10600D02*
Y27800D01*
X4388Y10600D02*
Y27800D01*
X554Y11808D02*
X22200D01*
X554Y11908D02*
X22200D01*
X554Y12008D02*
X22200D01*
X554Y12108D02*
X22200D01*
X554Y12208D02*
X22200D01*
X554Y12308D02*
X22200D01*
X554Y12408D02*
X22200D01*
X554Y12508D02*
X22200D01*
X554Y12608D02*
X22200D01*
X554Y12708D02*
X22200D01*
X554Y12808D02*
X22200D01*
X554Y12908D02*
X22200D01*
X554Y13008D02*
X22200D01*
X554Y13108D02*
X22200D01*
X554Y13208D02*
X22200D01*
X554Y13308D02*
X22200D01*
X554Y13408D02*
X22200D01*
X554Y13508D02*
X22200D01*
X554Y13608D02*
X22200D01*
X554Y13708D02*
X22200D01*
X554Y13808D02*
X22200D01*
X554Y13908D02*
X22200D01*
X554Y14008D02*
X22200D01*
X554Y14108D02*
X22200D01*
X554Y14208D02*
X22200D01*
X554Y14308D02*
X22200D01*
X554Y14408D02*
X22200D01*
X554Y14508D02*
X22200D01*
X554Y14608D02*
X22200D01*
X554Y14708D02*
X22200D01*
X554Y14808D02*
X22200D01*
X554Y14908D02*
X22200D01*
X554Y15008D02*
X22200D01*
X554Y15108D02*
X22200D01*
X554Y15208D02*
X22200D01*
X554Y15308D02*
X22200D01*
X554Y15408D02*
X22200D01*
X554Y15508D02*
X22200D01*
X554Y15608D02*
X22200D01*
X554Y15708D02*
X22200D01*
X554Y15808D02*
X22200D01*
X554Y15908D02*
X22200D01*
X554Y16008D02*
X22200D01*
X554Y16108D02*
X22200D01*
X554Y16208D02*
X22200D01*
X554Y16308D02*
X22200D01*
X554Y16408D02*
X22200D01*
X554Y16508D02*
X22200D01*
X554Y16608D02*
X22200D01*
X554Y16708D02*
X22200D01*
X554Y16808D02*
X22200D01*
X554Y16908D02*
X22200D01*
X554Y17008D02*
X22200D01*
X554Y17108D02*
X22200D01*
X554Y22908D02*
X17392D01*
X554Y23008D02*
X17292D01*
X554Y23108D02*
X17192D01*
X554Y22608D02*
X17692D01*
X554Y22708D02*
X17592D01*
X554Y22808D02*
X17492D01*
X554Y23608D02*
X16692D01*
X554Y23708D02*
X16592D01*
X554Y23808D02*
X16492D01*
X554Y23208D02*
X17092D01*
X554Y23308D02*
X16992D01*
X554Y23408D02*
X16892D01*
X554Y23508D02*
X16792D01*
X554Y24208D02*
X16092D01*
X554Y24308D02*
X15992D01*
X554Y24408D02*
X15892D01*
X554Y23908D02*
X16392D01*
X554Y24008D02*
X16292D01*
X554Y24108D02*
X16192D01*
X554Y24908D02*
X15392D01*
X554Y25008D02*
X15292D01*
X554Y25108D02*
X15192D01*
X554Y24508D02*
X15792D01*
X554Y24608D02*
X15692D01*
X554Y24708D02*
X15592D01*
X554Y24808D02*
X15492D01*
X554Y25508D02*
X14792D01*
X554Y25608D02*
X14692D01*
X554Y25708D02*
X14592D01*
X554Y25208D02*
X15092D01*
X554Y25308D02*
X14992D01*
X554Y25408D02*
X14892D01*
X554Y26208D02*
X14092D01*
X554Y26308D02*
X13992D01*
X554Y26408D02*
X13892D01*
X554Y25808D02*
X14492D01*
X554Y25908D02*
X14392D01*
X554Y26008D02*
X14292D01*
X554Y26108D02*
X14192D01*
X554Y26908D02*
X13392D01*
X554Y27008D02*
X13292D01*
X554Y27108D02*
X13192D01*
X554Y26508D02*
X13792D01*
X554Y26608D02*
X13692D01*
X554Y26708D02*
X13592D01*
X554Y26808D02*
X13492D01*
X554Y27608D02*
X12692D01*
X554Y27708D02*
X12592D01*
X554Y27800D02*
X12500D01*
X554Y27208D02*
X13092D01*
X554Y27308D02*
X12992D01*
X554Y27408D02*
X12892D01*
X554Y27508D02*
X12792D01*
X554Y17208D02*
X22200D01*
X554Y17308D02*
X22200D01*
X554Y17408D02*
X22200D01*
X554Y17508D02*
X22200D01*
X554Y17608D02*
X22200D01*
X554Y17708D02*
X22200D01*
X554Y18208D02*
X22092D01*
X554Y18308D02*
X21992D01*
X554Y18408D02*
X21892D01*
X554Y17808D02*
X22200D01*
X554Y17908D02*
X22200D01*
X554Y18008D02*
X22200D01*
X554Y18108D02*
X22192D01*
X554Y18908D02*
X21392D01*
X554Y19008D02*
X21292D01*
X554Y19108D02*
X21192D01*
X554Y18508D02*
X21792D01*
X554Y18608D02*
X21692D01*
X554Y18708D02*
X21592D01*
X554Y18808D02*
X21492D01*
X554Y19608D02*
X20692D01*
X554Y19708D02*
X20592D01*
X554Y19808D02*
X20492D01*
X554Y19208D02*
X21092D01*
X554Y19308D02*
X20992D01*
X554Y19408D02*
X20892D01*
X554Y19508D02*
X20792D01*
X554Y20208D02*
X20092D01*
X554Y20308D02*
X19992D01*
X554Y20408D02*
X19892D01*
X554Y19908D02*
X20392D01*
X554Y20008D02*
X20292D01*
X554Y20108D02*
X20192D01*
X554Y20908D02*
X19392D01*
X554Y21008D02*
X19292D01*
X554Y21108D02*
X19192D01*
X554Y20508D02*
X19792D01*
X554Y20608D02*
X19692D01*
X554Y20708D02*
X19592D01*
X554Y20808D02*
X19492D01*
X554Y21608D02*
X18692D01*
X554Y21708D02*
X18592D01*
X554Y21808D02*
X18492D01*
X554Y21208D02*
X19092D01*
X554Y21308D02*
X18992D01*
X554Y21408D02*
X18892D01*
X554Y21508D02*
X18792D01*
X554Y22308D02*
X17992D01*
X554Y22408D02*
X17892D01*
X554Y22508D02*
X17792D01*
X554Y21908D02*
X18392D01*
X554Y22008D02*
X18292D01*
X554Y22108D02*
X18192D01*
X554Y22208D02*
X18092D01*
X10800Y10600D02*
X14100Y7300D01*
X15788D02*
Y24512D01*
X15888Y7300D02*
Y24412D01*
X16188Y7300D02*
Y24112D01*
X15988Y7300D02*
Y24312D01*
X16088Y7300D02*
Y24212D01*
X16488Y7300D02*
Y23812D01*
X16288Y7300D02*
Y24012D01*
X16388Y7300D02*
Y23912D01*
X16788Y7300D02*
Y23512D01*
X16888Y7300D02*
Y23412D01*
X16588Y7300D02*
Y23712D01*
X16688Y7300D02*
Y23612D01*
X17188Y7300D02*
Y23112D01*
X16988Y7300D02*
Y23312D01*
X17088Y7300D02*
Y23212D01*
X17488Y7300D02*
Y22812D01*
X17288Y7300D02*
Y23012D01*
X17388Y7300D02*
Y22912D01*
X17788Y7300D02*
Y22512D01*
X17588Y7300D02*
Y22712D01*
X17688Y7300D02*
Y22612D01*
X18088Y7300D02*
Y22212D01*
X18188Y7300D02*
Y22112D01*
X17888Y7300D02*
Y22412D01*
X17988Y7300D02*
Y22312D01*
X13988Y7412D02*
Y26312D01*
X13788Y7612D02*
Y26512D01*
X13888Y7512D02*
Y26412D01*
X14288Y7300D02*
Y26012D01*
X14088Y7312D02*
Y26212D01*
X14188Y7300D02*
Y26112D01*
X13288Y8112D02*
Y27012D01*
X13088Y8312D02*
Y27212D01*
X13188Y8212D02*
Y27112D01*
X13588Y7812D02*
Y26712D01*
X13688Y7712D02*
Y26612D01*
X13388Y8012D02*
Y26912D01*
X13488Y7912D02*
Y26812D01*
X14588Y7300D02*
Y25712D01*
X14388Y7300D02*
Y25912D01*
X14488Y7300D02*
Y25812D01*
X14888Y7300D02*
Y25412D01*
X14988Y7300D02*
Y25312D01*
X14688Y7300D02*
Y25612D01*
X14788Y7300D02*
Y25512D01*
X15288Y7300D02*
Y25012D01*
X15088Y7300D02*
Y25212D01*
X15188Y7300D02*
Y25112D01*
X15588Y7300D02*
Y24712D01*
X15688Y7300D02*
Y24612D01*
X15388Y7300D02*
Y24912D01*
X15488Y7300D02*
Y24812D01*
X14100Y7300D02*
X22200D01*
X13992Y7408D02*
X22200D01*
X14092Y7308D02*
X22200D01*
X13892Y7508D02*
X22200D01*
X13692Y7708D02*
X22200D01*
X13792Y7608D02*
X22200D01*
X13592Y7808D02*
X22200D01*
X13392Y8008D02*
X22200D01*
X13492Y7908D02*
X22200D01*
X13192Y8208D02*
X22200D01*
X13292Y8108D02*
X22200D01*
X12992Y8408D02*
X22200D01*
X13092Y8308D02*
X22200D01*
X21188Y7300D02*
Y19112D01*
X20988Y7300D02*
Y19312D01*
X21088Y7300D02*
Y19212D01*
X21488Y7300D02*
Y18812D01*
X21588Y7300D02*
Y18712D01*
X21288Y7300D02*
Y19012D01*
X21388Y7300D02*
Y18912D01*
X21888Y7300D02*
Y18412D01*
X21688Y7300D02*
Y18612D01*
X21788Y7300D02*
Y18512D01*
X22188Y7300D02*
Y18112D01*
X22200Y7300D02*
Y18100D01*
X21988Y7300D02*
Y18312D01*
X22088Y7300D02*
Y18212D01*
X18488Y7300D02*
Y21812D01*
X18288Y7300D02*
Y22012D01*
X18388Y7300D02*
Y21912D01*
X18788Y7300D02*
Y21512D01*
X18588Y7300D02*
Y21712D01*
X18688Y7300D02*
Y21612D01*
X19088Y7300D02*
Y21212D01*
X18888Y7300D02*
Y21412D01*
X18988Y7300D02*
Y21312D01*
X19388Y7300D02*
Y20912D01*
X19488Y7300D02*
Y20812D01*
X19188Y7300D02*
Y21112D01*
X19288Y7300D02*
Y21012D01*
X19788Y7300D02*
Y20512D01*
X19588Y7300D02*
Y20712D01*
X19688Y7300D02*
Y20612D01*
X20088Y7300D02*
Y20212D01*
X20188Y7300D02*
Y20112D01*
X19888Y7300D02*
Y20412D01*
X19988Y7300D02*
Y20312D01*
X20488Y7300D02*
Y19812D01*
X20288Y7300D02*
Y20012D01*
X20388Y7300D02*
Y19912D01*
X20788Y7300D02*
Y19512D01*
X20888Y7300D02*
Y19412D01*
X20588Y7300D02*
Y19712D01*
X20688Y7300D02*
Y19612D01*
X4488Y10600D02*
Y27800D01*
X4588Y10600D02*
Y27800D01*
X4688Y10600D02*
Y27800D01*
X4788Y10600D02*
Y27800D01*
X4888Y10600D02*
Y27800D01*
X4988Y10600D02*
Y27800D01*
X5088Y10600D02*
Y27800D01*
X5188Y10600D02*
Y27800D01*
X5288Y10600D02*
Y27800D01*
X5388Y10600D02*
Y27800D01*
X5488Y10600D02*
Y27800D01*
X5588Y10600D02*
Y27800D01*
X5688Y10600D02*
Y27800D01*
X5788Y10600D02*
Y27800D01*
X5888Y10600D02*
Y27800D01*
X5988Y10600D02*
Y27800D01*
X6088Y10600D02*
Y27800D01*
X6188Y10600D02*
Y27800D01*
X6288Y10600D02*
Y27800D01*
X6388Y10600D02*
Y27800D01*
X6488Y10600D02*
Y27800D01*
X6588Y10600D02*
Y27800D01*
X6688Y10600D02*
Y27800D01*
X6788Y10600D02*
Y27800D01*
X6888Y10600D02*
Y27800D01*
X6988Y10600D02*
Y27800D01*
X7088Y10600D02*
Y27800D01*
X7188Y10600D02*
Y27800D01*
X7288Y10600D02*
Y27800D01*
X7388Y10600D02*
Y27800D01*
X7488Y10600D02*
Y27800D01*
X7588Y10600D02*
Y27800D01*
X7688Y10600D02*
Y27800D01*
X7788Y10600D02*
Y27800D01*
X7888Y10600D02*
Y27800D01*
X7988Y10600D02*
Y27800D01*
X8088Y10600D02*
Y27800D01*
X8188Y10600D02*
Y27800D01*
X8288Y10600D02*
Y27800D01*
X8388Y10600D02*
Y27800D01*
X8488Y10600D02*
Y27800D01*
X8588Y10600D02*
Y27800D01*
X8688Y10600D02*
Y27800D01*
X8788Y10600D02*
Y27800D01*
X8888Y10600D02*
Y27800D01*
X8988Y10600D02*
Y27800D01*
X9088Y10600D02*
Y27800D01*
X9188Y10600D02*
Y27800D01*
X9288Y10600D02*
Y27800D01*
X9388Y10600D02*
Y27800D01*
X9488Y10600D02*
Y27800D01*
X9588Y10600D02*
Y27800D01*
X9688Y10600D02*
Y27800D01*
X9788Y10600D02*
Y27800D01*
X11992Y9408D02*
X22200D01*
X11792Y9608D02*
X22200D01*
X11892Y9508D02*
X22200D01*
X11692Y9708D02*
X22200D01*
X11492Y9908D02*
X22200D01*
X11592Y9808D02*
X22200D01*
X11392Y10008D02*
X22200D01*
X9888Y10600D02*
Y27800D01*
X11292Y10108D02*
X22200D01*
X11092Y10308D02*
X22200D01*
X11192Y10208D02*
X22200D01*
X10892Y10508D02*
X22200D01*
X10992Y10408D02*
X22200D01*
X12888Y8512D02*
Y27412D01*
X12688Y8712D02*
Y27612D01*
X12788Y8612D02*
Y27512D01*
X12792Y8608D02*
X22200D01*
X12892Y8508D02*
X22200D01*
X12692Y8708D02*
X22200D01*
X12988Y8412D02*
Y27312D01*
X12592Y8808D02*
X22200D01*
X12492Y8908D02*
X22200D01*
X12588Y8812D02*
Y27712D01*
X12292Y9108D02*
X22200D01*
X12392Y9008D02*
X22200D01*
X12092Y9308D02*
X22200D01*
X12192Y9208D02*
X22200D01*
X9988Y10600D02*
Y27800D01*
X10088Y10600D02*
Y27800D01*
X10888Y10512D02*
Y27800D01*
X10988Y10412D02*
Y27800D01*
X11088Y10312D02*
Y27800D01*
X11188Y10212D02*
Y27800D01*
X10188Y10600D02*
Y27800D01*
X10288Y10600D02*
Y27800D01*
X10388Y10600D02*
Y27800D01*
X10488Y10600D02*
Y27800D01*
X10588Y10600D02*
Y27800D01*
X10688Y10600D02*
Y27800D01*
X10788Y10600D02*
Y27800D01*
X11888Y9512D02*
Y27800D01*
X11988Y9412D02*
Y27800D01*
X12088Y9312D02*
Y27800D01*
X12188Y9212D02*
Y27800D01*
X12288Y9112D02*
Y27800D01*
X12388Y9012D02*
Y27800D01*
X12488Y8912D02*
Y27800D01*
X11288Y10112D02*
Y27800D01*
X11388Y10012D02*
Y27800D01*
X11488Y9912D02*
Y27800D01*
X11588Y9812D02*
Y27800D01*
X11688Y9712D02*
Y27800D01*
X11788Y9612D02*
Y27800D01*
X12500D02*
X22200Y18100D01*
X554Y38700D02*
X12100D01*
X554Y38708D02*
X12108D01*
X554Y38808D02*
X12208D01*
X554Y38908D02*
X12308D01*
X554Y39008D02*
X12408D01*
X554Y39108D02*
X12508D01*
X554Y39208D02*
X12608D01*
X554Y39308D02*
X12708D01*
X554Y39408D02*
X12808D01*
X554Y39508D02*
X12908D01*
X554Y39608D02*
X13008D01*
X554Y39708D02*
X13108D01*
X554Y39808D02*
X13208D01*
X554Y39908D02*
X13308D01*
X554Y40008D02*
X13408D01*
X554Y40108D02*
X13508D01*
X554Y40208D02*
X13608D01*
X554Y40308D02*
X13708D01*
X554Y40408D02*
X13808D01*
X554Y40508D02*
X13908D01*
X554Y40608D02*
X14008D01*
X554Y40708D02*
X22100D01*
X554Y40808D02*
X22100D01*
X554Y40908D02*
X22100D01*
X554Y41008D02*
X22100D01*
X554Y38700D02*
Y56500D01*
X588Y38700D02*
Y56500D01*
X688Y38700D02*
Y56500D01*
X788Y38700D02*
Y56500D01*
X888Y38700D02*
Y56500D01*
X988Y38700D02*
Y56500D01*
X554Y41108D02*
X22100D01*
X554Y41208D02*
X22100D01*
X1088Y38700D02*
Y56500D01*
X554Y41308D02*
X22100D01*
X554Y41408D02*
X22100D01*
X554Y41508D02*
X22100D01*
X1188Y38700D02*
Y56500D01*
X1288Y38700D02*
Y56500D01*
X1388Y38700D02*
Y56500D01*
X1488Y38700D02*
Y56500D01*
X1588Y38700D02*
Y56500D01*
X1688Y38700D02*
Y56500D01*
X1788Y38700D02*
Y56500D01*
X1888Y38700D02*
Y56500D01*
X1988Y38700D02*
Y56500D01*
X2088Y38700D02*
Y56500D01*
X2188Y38700D02*
Y56500D01*
X2288Y38700D02*
Y56500D01*
X2388Y38700D02*
Y56500D01*
X554Y41608D02*
X22100D01*
X554Y41708D02*
X22100D01*
X554Y41808D02*
X22100D01*
X554Y41908D02*
X22100D01*
X554Y42008D02*
X22100D01*
X554Y42108D02*
X22100D01*
X554Y42208D02*
X22100D01*
X554Y42308D02*
X22100D01*
X554Y42408D02*
X22100D01*
X554Y42508D02*
X22100D01*
X554Y42608D02*
X22100D01*
X554Y42708D02*
X22100D01*
X554Y42808D02*
X22100D01*
X554Y42908D02*
X22100D01*
X554Y43008D02*
X22100D01*
X554Y43108D02*
X22100D01*
X554Y43208D02*
X22100D01*
X554Y43308D02*
X22100D01*
X554Y43408D02*
X22100D01*
X554Y43508D02*
X22100D01*
X554Y43608D02*
X22100D01*
X554Y43708D02*
X22100D01*
X554Y43808D02*
X22100D01*
X554Y43908D02*
X22100D01*
X554Y44008D02*
X22100D01*
X554Y44108D02*
X22100D01*
X554Y44208D02*
X22100D01*
X554Y44308D02*
X22100D01*
X554Y44408D02*
X22100D01*
X554Y44508D02*
X22100D01*
X554Y44608D02*
X22100D01*
X554Y44708D02*
X22100D01*
X554Y44808D02*
X22100D01*
X554Y44908D02*
X22100D01*
X554Y45008D02*
X22100D01*
X554Y45108D02*
X22100D01*
X554Y45208D02*
X22100D01*
X554Y45308D02*
X22100D01*
X554Y45408D02*
X22100D01*
X554Y45508D02*
X22100D01*
X554Y45608D02*
X22100D01*
X554Y45708D02*
X22100D01*
X554Y45808D02*
X22100D01*
X554Y45908D02*
X22100D01*
X554Y46008D02*
X22100D01*
X554Y46108D02*
X22100D01*
X554Y46208D02*
X22100D01*
X554Y46308D02*
X22100D01*
X554Y46408D02*
X22100D01*
X554Y46508D02*
X22092D01*
X554Y51908D02*
X16692D01*
X554Y52008D02*
X16592D01*
X554Y52108D02*
X16492D01*
X554Y51608D02*
X16992D01*
X554Y51708D02*
X16892D01*
X554Y51808D02*
X16792D01*
X554Y52508D02*
X16092D01*
X554Y52608D02*
X15992D01*
X554Y52708D02*
X15892D01*
X554Y52208D02*
X16392D01*
X554Y52308D02*
X16292D01*
X554Y52408D02*
X16192D01*
X554Y53108D02*
X15492D01*
X554Y53208D02*
X15392D01*
X554Y53308D02*
X15292D01*
X554Y52808D02*
X15792D01*
X554Y52908D02*
X15692D01*
X554Y53008D02*
X15592D01*
X554Y53808D02*
X14792D01*
X554Y53908D02*
X14692D01*
X554Y54008D02*
X14592D01*
X554Y53408D02*
X15192D01*
X554Y53508D02*
X15092D01*
X554Y53608D02*
X14992D01*
X554Y53708D02*
X14892D01*
X554Y54408D02*
X14192D01*
X554Y54508D02*
X14092D01*
X554Y54608D02*
X13992D01*
X554Y54108D02*
X14492D01*
X554Y54208D02*
X14392D01*
X554Y54308D02*
X14292D01*
X554Y55008D02*
X13592D01*
X554Y55108D02*
X13492D01*
X554Y55208D02*
X13392D01*
X554Y54708D02*
X13892D01*
X554Y54808D02*
X13792D01*
X554Y54908D02*
X13692D01*
X554Y55608D02*
X12992D01*
X554Y55708D02*
X12892D01*
X554Y55808D02*
X12792D01*
X554Y55308D02*
X13292D01*
X554Y55408D02*
X13192D01*
X554Y55508D02*
X13092D01*
X554Y56308D02*
X12292D01*
X554Y56408D02*
X12192D01*
X554Y56500D02*
X12100D01*
X554Y55908D02*
X12692D01*
X554Y56008D02*
X12592D01*
X554Y56108D02*
X12492D01*
X554Y56208D02*
X12392D01*
X554Y46908D02*
X21692D01*
X554Y47008D02*
X21592D01*
X554Y47108D02*
X21492D01*
X554Y46608D02*
X21992D01*
X554Y46708D02*
X21892D01*
X554Y46808D02*
X21792D01*
X554Y47508D02*
X21092D01*
X554Y47608D02*
X20992D01*
X554Y47708D02*
X20892D01*
X554Y47208D02*
X21392D01*
X554Y47308D02*
X21292D01*
X554Y47408D02*
X21192D01*
X554Y48108D02*
X20492D01*
X554Y48208D02*
X20392D01*
X554Y48308D02*
X20292D01*
X554Y47808D02*
X20792D01*
X554Y47908D02*
X20692D01*
X554Y48008D02*
X20592D01*
X554Y48808D02*
X19792D01*
X554Y48908D02*
X19692D01*
X554Y49008D02*
X19592D01*
X554Y48408D02*
X20192D01*
X554Y48508D02*
X20092D01*
X554Y48608D02*
X19992D01*
X554Y48708D02*
X19892D01*
X554Y49408D02*
X19192D01*
X554Y49508D02*
X19092D01*
X554Y49608D02*
X18992D01*
X554Y49108D02*
X19492D01*
X554Y49208D02*
X19392D01*
X554Y49308D02*
X19292D01*
X554Y50008D02*
X18592D01*
X554Y50108D02*
X18492D01*
X554Y50208D02*
X18392D01*
X554Y49708D02*
X18892D01*
X554Y49808D02*
X18792D01*
X554Y49908D02*
X18692D01*
X554Y50608D02*
X17992D01*
X554Y50708D02*
X17892D01*
X554Y50808D02*
X17792D01*
X554Y50308D02*
X18292D01*
X554Y50408D02*
X18192D01*
X554Y50508D02*
X18092D01*
X554Y51308D02*
X17292D01*
X554Y51408D02*
X17192D01*
X554Y51508D02*
X17092D01*
X554Y50908D02*
X17692D01*
X554Y51008D02*
X17592D01*
X554Y51108D02*
X17492D01*
X554Y51208D02*
X17392D01*
X2488Y38700D02*
Y56500D01*
X2588Y38700D02*
Y56500D01*
X2688Y38700D02*
Y56500D01*
X2788Y38700D02*
Y56500D01*
X2888Y38700D02*
Y56500D01*
X2988Y38700D02*
Y56500D01*
X3088Y38700D02*
Y56500D01*
X3188Y38700D02*
Y56500D01*
X3288Y38700D02*
Y56500D01*
X3388Y38700D02*
Y56500D01*
X3488Y38700D02*
Y56500D01*
X3588Y38700D02*
Y56500D01*
X3688Y38700D02*
Y56500D01*
X3788Y38700D02*
Y56500D01*
X3888Y38700D02*
Y56500D01*
X3988Y38700D02*
Y56500D01*
X4088Y38700D02*
Y56500D01*
X4188Y38700D02*
Y56500D01*
X4288Y38700D02*
Y56500D01*
X4388Y38700D02*
Y56500D01*
X4488Y38700D02*
Y56500D01*
X4588Y38700D02*
Y56500D01*
X4688Y38700D02*
Y56500D01*
X4788Y38700D02*
Y56500D01*
X4888Y38700D02*
Y56500D01*
X4988Y38700D02*
Y56500D01*
X5088Y38700D02*
Y56500D01*
X5188Y38700D02*
Y56500D01*
X5288Y38700D02*
Y56500D01*
X5388Y38700D02*
Y56500D01*
X5488Y38700D02*
Y56500D01*
X5588Y38700D02*
Y56500D01*
X5688Y38700D02*
Y56500D01*
X5788Y38700D02*
Y56500D01*
X5888Y38700D02*
Y56500D01*
X5988Y38700D02*
Y56500D01*
X6088Y38700D02*
Y56500D01*
X6188Y38700D02*
Y56500D01*
X6288Y38700D02*
Y56500D01*
X6388Y38700D02*
Y56500D01*
X6488Y38700D02*
Y56500D01*
X6588Y38700D02*
Y56500D01*
X6688Y38700D02*
Y56500D01*
X6788Y38700D02*
Y56500D01*
X6888Y38700D02*
Y56500D01*
X6988Y38700D02*
Y56500D01*
X7088Y38700D02*
Y56500D01*
X7188Y38700D02*
Y56500D01*
X7288Y38700D02*
Y56500D01*
X7388Y38700D02*
Y56500D01*
X7488Y38700D02*
Y56500D01*
X7588Y38700D02*
Y56500D01*
X7688Y38700D02*
Y56500D01*
X7788Y38700D02*
Y56500D01*
X7888Y38700D02*
Y56500D01*
X7988Y38700D02*
Y56500D01*
X8088Y38700D02*
Y56500D01*
X8188Y38700D02*
Y56500D01*
X8288Y38700D02*
Y56500D01*
X8388Y38700D02*
Y56500D01*
X8488Y38700D02*
Y56500D01*
X8588Y38700D02*
Y56500D01*
X8688Y38700D02*
Y56500D01*
X8788Y38700D02*
Y56500D01*
X8888Y38700D02*
Y56500D01*
X8988Y38700D02*
Y56500D01*
X9088Y38700D02*
Y56500D01*
X9188Y38700D02*
Y56500D01*
X9288Y38700D02*
Y56500D01*
X9388Y38700D02*
Y56500D01*
X9488Y38700D02*
Y56500D01*
X12100Y38700D02*
X14100Y40700D01*
X12288Y38888D02*
Y56312D01*
X9588Y38700D02*
Y56500D01*
X12188Y38788D02*
Y56412D01*
X9688Y38700D02*
Y56500D01*
X9788Y38700D02*
Y56500D01*
X9888Y38700D02*
Y56500D01*
X9988Y38700D02*
Y56500D01*
X10088Y38700D02*
Y56500D01*
X10188Y38700D02*
Y56500D01*
X10288Y38700D02*
Y56500D01*
X10388Y38700D02*
Y56500D01*
X10488Y38700D02*
Y56500D01*
X10588Y38700D02*
Y56500D01*
X10688Y38700D02*
Y56500D01*
X10788Y38700D02*
Y56500D01*
X10888Y38700D02*
Y56500D01*
X10988Y38700D02*
Y56500D01*
X11088Y38700D02*
Y56500D01*
X11188Y38700D02*
Y56500D01*
X11288Y38700D02*
Y56500D01*
X11388Y38700D02*
Y56500D01*
X11488Y38700D02*
Y56500D01*
X11588Y38700D02*
Y56500D01*
X11688Y38700D02*
Y56500D01*
X11788Y38700D02*
Y56500D01*
X11888Y38700D02*
Y56500D01*
X11988Y38700D02*
Y56500D01*
X12088Y38700D02*
Y56500D01*
X15088Y40700D02*
Y53512D01*
X14888Y40700D02*
Y53712D01*
X14988Y40700D02*
Y53612D01*
X15388Y40700D02*
Y53212D01*
X15188Y40700D02*
Y53412D01*
X15288Y40700D02*
Y53312D01*
X15688Y40700D02*
Y52912D01*
X15488Y40700D02*
Y53112D01*
X15588Y40700D02*
Y53012D01*
X15988Y40700D02*
Y52612D01*
X15788Y40700D02*
Y52812D01*
X15888Y40700D02*
Y52712D01*
X16288Y40700D02*
Y52312D01*
X16088Y40700D02*
Y52512D01*
X16188Y40700D02*
Y52412D01*
X16588Y40700D02*
Y52012D01*
X16388Y40700D02*
Y52212D01*
X16488Y40700D02*
Y52112D01*
X16888Y40700D02*
Y51712D01*
X16688Y40700D02*
Y51912D01*
X16788Y40700D02*
Y51812D01*
X17188Y40700D02*
Y51412D01*
X17288Y40700D02*
Y51312D01*
X16988Y40700D02*
Y51612D01*
X17088Y40700D02*
Y51512D01*
X12588Y39188D02*
Y56012D01*
X12388Y38988D02*
Y56212D01*
X12488Y39088D02*
Y56112D01*
X12888Y39488D02*
Y55712D01*
X12688Y39288D02*
Y55912D01*
X12788Y39388D02*
Y55812D01*
X13188Y39788D02*
Y55412D01*
X12988Y39588D02*
Y55612D01*
X13088Y39688D02*
Y55512D01*
X13488Y40088D02*
Y55112D01*
X13288Y39888D02*
Y55312D01*
X13388Y39988D02*
Y55212D01*
X13788Y40388D02*
Y54812D01*
X13588Y40188D02*
Y55012D01*
X13688Y40288D02*
Y54912D01*
X14088Y40688D02*
Y54512D01*
X13888Y40488D02*
Y54712D01*
X13988Y40588D02*
Y54612D01*
X14388Y40700D02*
Y54212D01*
X14188Y40700D02*
Y54412D01*
X14288Y40700D02*
Y54312D01*
X14688Y40700D02*
Y53912D01*
X14788Y40700D02*
Y53812D01*
X14488Y40700D02*
Y54112D01*
X14588Y40700D02*
Y54012D01*
X20088Y40700D02*
Y48512D01*
X19888Y40700D02*
Y48712D01*
X19988Y40700D02*
Y48612D01*
X14100Y40700D02*
X22100D01*
X20188D02*
Y48412D01*
X20288Y40700D02*
Y48312D01*
X20588Y40700D02*
Y48012D01*
X20388Y40700D02*
Y48212D01*
X20488Y40700D02*
Y48112D01*
X20888Y40700D02*
Y47712D01*
X20688Y40700D02*
Y47912D01*
X20788Y40700D02*
Y47812D01*
X21188Y40700D02*
Y47412D01*
X20988Y40700D02*
Y47612D01*
X21088Y40700D02*
Y47512D01*
X21488Y40700D02*
Y47112D01*
X21288Y40700D02*
Y47312D01*
X21388Y40700D02*
Y47212D01*
X21788Y40700D02*
Y46812D01*
X21588Y40700D02*
Y47012D01*
X21688Y40700D02*
Y46912D01*
X22100Y40700D02*
Y46500D01*
X22088Y40700D02*
Y46512D01*
X21888Y40700D02*
Y46712D01*
X21988Y40700D02*
Y46612D01*
X17588Y40700D02*
Y51012D01*
X17388Y40700D02*
Y51212D01*
X17488Y40700D02*
Y51112D01*
X17888Y40700D02*
Y50712D01*
X17688Y40700D02*
Y50912D01*
X17788Y40700D02*
Y50812D01*
X18188Y40700D02*
Y50412D01*
X17988Y40700D02*
Y50612D01*
X18088Y40700D02*
Y50512D01*
X18388Y40700D02*
Y50212D01*
X18488Y40700D02*
Y50112D01*
X12100Y56500D02*
X22100Y46500D01*
X18288Y40700D02*
Y50312D01*
X18788Y40700D02*
Y49812D01*
X18588Y40700D02*
Y50012D01*
X18688Y40700D02*
Y49912D01*
X19088Y40700D02*
Y49512D01*
X18888Y40700D02*
Y49712D01*
X18988Y40700D02*
Y49612D01*
X19388Y40700D02*
Y49212D01*
X19188Y40700D02*
Y49412D01*
X19288Y40700D02*
Y49312D01*
X19688Y40700D02*
Y48912D01*
X19788Y40700D02*
Y48812D01*
X19488Y40700D02*
Y49112D01*
X19588Y40700D02*
Y49012D01*
X554Y67000D02*
X12300D01*
X554Y67008D02*
X12308D01*
X554Y67108D02*
X12408D01*
X554Y67208D02*
X12508D01*
X554Y67308D02*
X12608D01*
X554Y67408D02*
X12708D01*
X554Y67508D02*
X12808D01*
X554Y67608D02*
X12908D01*
X554Y67708D02*
X13008D01*
X554Y67808D02*
X13108D01*
X554Y67908D02*
X13208D01*
X554Y68008D02*
X13308D01*
X554Y68108D02*
X13408D01*
X554Y68208D02*
X13508D01*
X554Y68308D02*
X13600D01*
X554Y68408D02*
X13600D01*
X554Y68508D02*
X13600D01*
X554Y68608D02*
X13600D01*
X554Y68708D02*
X13600D01*
X554Y68808D02*
X13600D01*
X554Y68908D02*
X13600D01*
X554Y69008D02*
X13600D01*
X554Y69108D02*
X13600D01*
X554Y69208D02*
X13600D01*
X554Y69308D02*
X13600D01*
X554Y67000D02*
Y84500D01*
X588Y67000D02*
Y84500D01*
X688Y67000D02*
Y84500D01*
X788Y67000D02*
Y84500D01*
X888Y67000D02*
Y84500D01*
X988Y67000D02*
Y84500D01*
X1088Y67000D02*
Y84500D01*
X1188Y67000D02*
Y84500D01*
X1288Y67000D02*
Y84500D01*
X554Y69408D02*
X13600D01*
X1388Y67000D02*
Y84500D01*
X1488Y67000D02*
Y84500D01*
X1588Y67000D02*
Y84500D01*
X1688Y67000D02*
Y84500D01*
X1788Y67000D02*
Y84500D01*
X1888Y67000D02*
Y84500D01*
X1988Y67000D02*
Y84500D01*
X2088Y67000D02*
Y84500D01*
X2188Y67000D02*
Y84500D01*
X2288Y67000D02*
Y84500D01*
X2388Y67000D02*
Y84500D01*
X2488Y67000D02*
Y84500D01*
X2588Y67000D02*
Y84500D01*
X2688Y67000D02*
Y84500D01*
X2788Y67000D02*
Y84500D01*
X554Y69508D02*
X13600D01*
X554Y69608D02*
X13600D01*
X554Y69708D02*
X13600D01*
X554Y69808D02*
X13600D01*
X554Y69908D02*
X13600D01*
X554Y70008D02*
X13600D01*
X554Y70108D02*
X13600D01*
X554Y70208D02*
X13600D01*
X554Y70308D02*
X13600D01*
X554Y70408D02*
X13600D01*
X554Y70508D02*
X13600D01*
X554Y70608D02*
X13600D01*
X554Y70708D02*
X13600D01*
X554Y70808D02*
X13600D01*
X554Y70908D02*
X13600D01*
X554Y71008D02*
X13600D01*
X554Y71108D02*
X13600D01*
X554Y71208D02*
X13600D01*
X554Y71308D02*
X13600D01*
X554Y71408D02*
X13600D01*
X554Y71508D02*
X13600D01*
X554Y71608D02*
X13600D01*
X554Y71708D02*
X13600D01*
X554Y71808D02*
X13600D01*
X554Y71908D02*
X13600D01*
X554Y72008D02*
X13600D01*
X554Y72108D02*
X13600D01*
X554Y72208D02*
X13600D01*
X554Y72308D02*
X13600D01*
X554Y72408D02*
X13600D01*
X554Y72508D02*
X13600D01*
X554Y72608D02*
X13608D01*
X554Y72708D02*
X13708D01*
X554Y72808D02*
X13808D01*
X554Y72908D02*
X13908D01*
X554Y73008D02*
X14008D01*
X554Y73108D02*
X14108D01*
X554Y73208D02*
X14208D01*
X554Y73308D02*
X14308D01*
X554Y73408D02*
X14408D01*
X554Y73508D02*
X22400D01*
X554Y73608D02*
X22400D01*
X554Y73708D02*
X22400D01*
X554Y73808D02*
X22400D01*
X554Y73908D02*
X22400D01*
X554Y74008D02*
X22400D01*
X554Y74108D02*
X22400D01*
X554Y74208D02*
X22400D01*
X554Y74308D02*
X22400D01*
X554Y74408D02*
X22400D01*
X554Y74508D02*
X22400D01*
X554Y74608D02*
X22400D01*
X554Y74708D02*
X22400D01*
X554Y74808D02*
X22400D01*
X554Y74908D02*
X22400D01*
X554Y75008D02*
X22400D01*
X554Y75108D02*
X22400D01*
X554Y75208D02*
X22400D01*
X554Y75308D02*
X22400D01*
X554Y75408D02*
X22400D01*
X554Y75508D02*
X22400D01*
X554Y75608D02*
X22400D01*
X554Y81108D02*
X22192D01*
X554Y81208D02*
X22092D01*
X554Y81308D02*
X21992D01*
X554Y75708D02*
X22400D01*
X554Y75808D02*
X22400D01*
X554Y81008D02*
X22292D01*
X554Y81808D02*
X21492D01*
X554Y81908D02*
X21392D01*
X554Y82008D02*
X21292D01*
X554Y81408D02*
X21892D01*
X554Y81508D02*
X21792D01*
X554Y81608D02*
X21692D01*
X554Y81708D02*
X21592D01*
X554Y82408D02*
X20892D01*
X554Y82508D02*
X20792D01*
X554Y82608D02*
X20692D01*
X554Y82108D02*
X21192D01*
X554Y82208D02*
X21092D01*
X554Y82308D02*
X20992D01*
X554Y83008D02*
X20292D01*
X554Y83108D02*
X20192D01*
X554Y83208D02*
X20092D01*
X554Y82708D02*
X20592D01*
X554Y82808D02*
X20492D01*
X554Y82908D02*
X20392D01*
X554Y83608D02*
X19692D01*
X554Y83708D02*
X19592D01*
X554Y83808D02*
X19492D01*
X554Y83308D02*
X19992D01*
X554Y83408D02*
X19892D01*
X554Y83508D02*
X19792D01*
X554Y84308D02*
X18992D01*
X554Y84408D02*
X18892D01*
X554Y84500D02*
X18800D01*
X554Y83908D02*
X19392D01*
X554Y84008D02*
X19292D01*
X554Y84108D02*
X19192D01*
X554Y84208D02*
X19092D01*
X554Y75908D02*
X22400D01*
X554Y76008D02*
X22400D01*
X554Y76108D02*
X22400D01*
X554Y76208D02*
X22400D01*
X554Y76308D02*
X22400D01*
X554Y76408D02*
X22400D01*
X554Y76508D02*
X22400D01*
X554Y76608D02*
X22400D01*
X554Y76708D02*
X22400D01*
X554Y76808D02*
X22400D01*
X554Y76908D02*
X22400D01*
X554Y77008D02*
X22400D01*
X554Y77108D02*
X22400D01*
X554Y77208D02*
X22400D01*
X554Y77308D02*
X22400D01*
X554Y77408D02*
X22400D01*
X554Y77508D02*
X22400D01*
X554Y77608D02*
X22400D01*
X554Y77708D02*
X22400D01*
X554Y77808D02*
X22400D01*
X554Y77908D02*
X22400D01*
X554Y78008D02*
X22400D01*
X554Y78108D02*
X22400D01*
X554Y78208D02*
X22400D01*
X554Y78308D02*
X22400D01*
X554Y78408D02*
X22400D01*
X554Y78508D02*
X22400D01*
X554Y78608D02*
X22400D01*
X554Y78708D02*
X22400D01*
X554Y78808D02*
X22400D01*
X554Y78908D02*
X22400D01*
X554Y79008D02*
X22400D01*
X554Y79108D02*
X22400D01*
X554Y79208D02*
X22400D01*
X554Y79308D02*
X22400D01*
X554Y79408D02*
X22400D01*
X554Y79508D02*
X22400D01*
X554Y79608D02*
X22400D01*
X554Y79708D02*
X22400D01*
X554Y79808D02*
X22400D01*
X554Y79908D02*
X22400D01*
X554Y80008D02*
X22400D01*
X554Y80108D02*
X22400D01*
X554Y80208D02*
X22400D01*
X554Y80308D02*
X22400D01*
X554Y80408D02*
X22400D01*
X554Y80508D02*
X22400D01*
X554Y80608D02*
X22400D01*
X554Y80708D02*
X22400D01*
X554Y80808D02*
X22400D01*
X554Y80908D02*
X22392D01*
X2888Y67000D02*
Y84500D01*
X2988Y67000D02*
Y84500D01*
X3088Y67000D02*
Y84500D01*
X3188Y67000D02*
Y84500D01*
X3288Y67000D02*
Y84500D01*
X3388Y67000D02*
Y84500D01*
X3488Y67000D02*
Y84500D01*
X3588Y67000D02*
Y84500D01*
X3688Y67000D02*
Y84500D01*
X3788Y67000D02*
Y84500D01*
X3888Y67000D02*
Y84500D01*
X3988Y67000D02*
Y84500D01*
X4088Y67000D02*
Y84500D01*
X4188Y67000D02*
Y84500D01*
X4288Y67000D02*
Y84500D01*
X4388Y67000D02*
Y84500D01*
X4488Y67000D02*
Y84500D01*
X4588Y67000D02*
Y84500D01*
X4688Y67000D02*
Y84500D01*
X4788Y67000D02*
Y84500D01*
X4888Y67000D02*
Y84500D01*
X4988Y67000D02*
Y84500D01*
X5088Y67000D02*
Y84500D01*
X5188Y67000D02*
Y84500D01*
X5288Y67000D02*
Y84500D01*
X5388Y67000D02*
Y84500D01*
X5488Y67000D02*
Y84500D01*
X5588Y67000D02*
Y84500D01*
X5688Y67000D02*
Y84500D01*
X5788Y67000D02*
Y84500D01*
X5888Y67000D02*
Y84500D01*
X5988Y67000D02*
Y84500D01*
X6088Y67000D02*
Y84500D01*
X6188Y67000D02*
Y84500D01*
X6288Y67000D02*
Y84500D01*
X6388Y67000D02*
Y84500D01*
X6488Y67000D02*
Y84500D01*
X6588Y67000D02*
Y84500D01*
X6688Y67000D02*
Y84500D01*
X6788Y67000D02*
Y84500D01*
X6888Y67000D02*
Y84500D01*
X6988Y67000D02*
Y84500D01*
X7088Y67000D02*
Y84500D01*
X7188Y67000D02*
Y84500D01*
X7288Y67000D02*
Y84500D01*
X7388Y67000D02*
Y84500D01*
X7488Y67000D02*
Y84500D01*
X7588Y67000D02*
Y84500D01*
X7688Y67000D02*
Y84500D01*
X7788Y67000D02*
Y84500D01*
X7888Y67000D02*
Y84500D01*
X7988Y67000D02*
Y84500D01*
X8088Y67000D02*
Y84500D01*
X8188Y67000D02*
Y84500D01*
X8288Y67000D02*
Y84500D01*
X8388Y67000D02*
Y84500D01*
X8488Y67000D02*
Y84500D01*
X8588Y67000D02*
Y84500D01*
X8688Y67000D02*
Y84500D01*
X8788Y67000D02*
Y84500D01*
X8888Y67000D02*
Y84500D01*
X8988Y67000D02*
Y84500D01*
X9088Y67000D02*
Y84500D01*
X9188Y67000D02*
Y84500D01*
X9288Y67000D02*
Y84500D01*
X9388Y67000D02*
Y84500D01*
X9488Y67000D02*
Y84500D01*
X9588Y67000D02*
Y84500D01*
X9688Y67000D02*
Y84500D01*
X9788Y67000D02*
Y84500D01*
X9888Y67000D02*
Y84500D01*
X9988Y67000D02*
Y84500D01*
X12300Y67000D02*
X13600Y68300D01*
X10088Y67000D02*
Y84500D01*
X10188Y67000D02*
Y84500D01*
X10288Y67000D02*
Y84500D01*
X10388Y67000D02*
Y84500D01*
X10488Y67000D02*
Y84500D01*
X10588Y67000D02*
Y84500D01*
X10688Y67000D02*
Y84500D01*
X10788Y67000D02*
Y84500D01*
X10888Y67000D02*
Y84500D01*
X10988Y67000D02*
Y84500D01*
X11088Y67000D02*
Y84500D01*
X11188Y67000D02*
Y84500D01*
X11288Y67000D02*
Y84500D01*
X11388Y67000D02*
Y84500D01*
X11488Y67000D02*
Y84500D01*
X11588Y67000D02*
Y84500D01*
X11688Y67000D02*
Y84500D01*
X11788Y67000D02*
Y84500D01*
X11888Y67000D02*
Y84500D01*
X11988Y67000D02*
Y84500D01*
X12088Y67000D02*
Y84500D01*
X12188Y67000D02*
Y84500D01*
X12288Y67000D02*
Y84500D01*
X12388Y67088D02*
Y84500D01*
X12488Y67188D02*
Y84500D01*
X12588Y67288D02*
Y84500D01*
X12688Y67388D02*
Y84500D01*
X12788Y67488D02*
Y84500D01*
X12888Y67588D02*
Y84500D01*
X12988Y67688D02*
Y84500D01*
X13088Y67788D02*
Y84500D01*
X13188Y67888D02*
Y84500D01*
X13288Y67988D02*
Y84500D01*
X13388Y68088D02*
Y84500D01*
X13600Y68300D02*
Y72600D01*
X13488Y68188D02*
Y84500D01*
X13588Y68288D02*
Y84500D01*
X13600Y72600D02*
X14500Y73500D01*
X13688Y72688D02*
Y84500D01*
X13788Y72788D02*
Y84500D01*
X13888Y72888D02*
Y84500D01*
X13988Y72988D02*
Y84500D01*
X14088Y73088D02*
Y84500D01*
X14188Y73188D02*
Y84500D01*
X14288Y73288D02*
Y84500D01*
X14388Y73388D02*
Y84500D01*
X14488Y73488D02*
Y84500D01*
X14588Y73500D02*
Y84500D01*
X14688Y73500D02*
Y84500D01*
X14788Y73500D02*
Y84500D01*
X14888Y73500D02*
Y84500D01*
X14988Y73500D02*
Y84500D01*
X15088Y73500D02*
Y84500D01*
X15188Y73500D02*
Y84500D01*
X15288Y73500D02*
Y84500D01*
X15388Y73500D02*
Y84500D01*
X15488Y73500D02*
Y84500D01*
X15588Y73500D02*
Y84500D01*
X15688Y73500D02*
Y84500D01*
X15788Y73500D02*
Y84500D01*
X15888Y73500D02*
Y84500D01*
X15988Y73500D02*
Y84500D01*
X16088Y73500D02*
Y84500D01*
X16188Y73500D02*
Y84500D01*
X16288Y73500D02*
Y84500D01*
X16388Y73500D02*
Y84500D01*
X16488Y73500D02*
Y84500D01*
X16588Y73500D02*
Y84500D01*
X16688Y73500D02*
Y84500D01*
X16788Y73500D02*
Y84500D01*
X16888Y73500D02*
Y84500D01*
X16988Y73500D02*
Y84500D01*
X17088Y73500D02*
Y84500D01*
X17188Y73500D02*
Y84500D01*
X17288Y73500D02*
Y84500D01*
X17388Y73500D02*
Y84500D01*
X17488Y73500D02*
Y84500D01*
X17588Y73500D02*
Y84500D01*
X20388Y73500D02*
Y82912D01*
X20188Y73500D02*
Y83112D01*
X20288Y73500D02*
Y83012D01*
X14500Y73500D02*
X22400D01*
X20488D02*
Y82812D01*
X20588Y73500D02*
Y82712D01*
X20888Y73500D02*
Y82412D01*
X20688Y73500D02*
Y82612D01*
X20788Y73500D02*
Y82512D01*
X21188Y73500D02*
Y82112D01*
X20988Y73500D02*
Y82312D01*
X21088Y73500D02*
Y82212D01*
X21488Y73500D02*
Y81812D01*
X21288Y73500D02*
Y82012D01*
X21388Y73500D02*
Y81912D01*
X21788Y73500D02*
Y81512D01*
X21588Y73500D02*
Y81712D01*
X21688Y73500D02*
Y81612D01*
X22088Y73500D02*
Y81212D01*
X21888Y73500D02*
Y81412D01*
X21988Y73500D02*
Y81312D01*
X22400Y73500D02*
Y80900D01*
X22388Y73500D02*
Y80912D01*
X22188Y73500D02*
Y81112D01*
X22288Y73500D02*
Y81012D01*
X17688Y73500D02*
Y84500D01*
X17788Y73500D02*
Y84500D01*
X17888Y73500D02*
Y84500D01*
X17988Y73500D02*
Y84500D01*
X18088Y73500D02*
Y84500D01*
X18188Y73500D02*
Y84500D01*
X18288Y73500D02*
Y84500D01*
X18388Y73500D02*
Y84500D01*
X18488Y73500D02*
Y84500D01*
X18588Y73500D02*
Y84500D01*
X18688Y73500D02*
Y84500D01*
X18788Y73500D02*
Y84500D01*
X18800D02*
X22400Y80900D01*
X19088Y73500D02*
Y84212D01*
X18888Y73500D02*
Y84412D01*
X18988Y73500D02*
Y84312D01*
X19388Y73500D02*
Y83912D01*
X19188Y73500D02*
Y84112D01*
X19288Y73500D02*
Y84012D01*
X19688Y73500D02*
Y83612D01*
X19488Y73500D02*
Y83812D01*
X19588Y73500D02*
Y83712D01*
X19988Y73500D02*
Y83312D01*
X20088Y73500D02*
Y83212D01*
X19788Y73500D02*
Y83512D01*
X19888Y73500D02*
Y83412D01*
D11*
X27400Y61800D02*
D03*
X36300Y46400D02*
D03*
X18500Y43860D02*
D03*
Y36160D02*
D03*
Y2660D02*
D03*
Y10360D02*
D03*
X36300Y12900D02*
D03*
X27400Y28300D02*
D03*
X18500Y69660D02*
D03*
Y77360D02*
D03*
X36300Y79900D02*
D03*
X27400Y95300D02*
D03*
D12*
X22300Y59260D02*
D03*
X32500D02*
D03*
Y25760D02*
D03*
X22300D02*
D03*
X32500Y92760D02*
D03*
X22300D02*
D03*
X49050Y88400D02*
D03*
X46550D02*
D03*
Y60850D02*
D03*
X49050D02*
D03*
Y33300D02*
D03*
X46550D02*
D03*
X7750Y33500D02*
D03*
X5250D02*
D03*
D13*
X5000Y4000D02*
D03*
X50000D02*
D03*
X5000Y96000D02*
D03*
X50000D02*
D03*
D14*
X9650Y70000D02*
D03*
X3350D02*
D03*
Y81000D02*
D03*
X9650Y81000D02*
D03*
X50950Y52900D02*
D03*
X44650Y52900D02*
D03*
Y41900D02*
D03*
X50950D02*
D03*
X9650D02*
D03*
X3350D02*
D03*
Y52900D02*
D03*
X9650Y52900D02*
D03*
X50950Y81000D02*
D03*
X44650Y81000D02*
D03*
Y70000D02*
D03*
X50950D02*
D03*
Y24800D02*
D03*
X44650D02*
D03*
Y13800D02*
D03*
X50950D02*
D03*
X9650D02*
D03*
X3350D02*
D03*
Y24800D02*
D03*
X9650Y24800D02*
D03*
D15*
X21800Y26260D02*
X22300Y25760D01*
X12500Y33500D02*
X16400Y29600D01*
X32500Y25760D02*
X39940Y33200D01*
X49100D01*
X32500Y92760D02*
X36860Y88400D01*
X49200D01*
X39060Y59260D02*
X40650Y60850D01*
X32500Y59260D02*
X39060D01*
X40650Y60850D02*
X49050D01*
X27500Y70500D02*
Y86000D01*
X21700Y64700D02*
X22400Y65400D01*
Y65400D02*
X27500Y70500D01*
X22300Y91200D02*
X27500Y86000D01*
X27300Y36700D02*
Y52200D01*
X16400Y29600D02*
X21800D01*
X22300Y91200D02*
Y92760D01*
X21800Y26260D02*
Y31200D01*
X5250Y33500D02*
X12500D01*
X21700Y57800D02*
Y64700D01*
X21800Y31200D02*
X27300Y36700D01*
X21700Y57800D02*
X27300Y52200D01*
M02*
