METRIC,LZ
M48
T1F00S00C1.100
T2F00S00C1.400
T3F00S00C2.100
T4F00S00C2.500
T5F00S00C4.100
%
T01
X00223Y002576
X00325
Y005926
X00223
Y009276
X00325
T02
X004655Y00333
X004905
X000775Y00335
X000525
X004655Y006085
X004905
Y00884
X004655
T03
X00363Y00129
X00185Y001036
Y000266
Y003616
X00274Y00283
X00185Y004386
Y006966
Y007736
X00274Y00618
X00363Y00464
X00363Y00799
X00274Y00953
T04
X004465Y00138
X005095
Y00248
X004465
X000965Y00248
X000335Y00248
Y00138
X000965
Y00419
X000335
Y00529
X000965Y00529
X000965Y007
X000335
Y0081
X000965Y0081
X004465Y0081
X005095Y0081
Y007
X004465
Y00529
X005095Y00529
Y00419
X004465
T05
X005Y0004
X0005
X005Y0096
X0005
M30
